<svg width="186" height="54" viewBox="0 0 186 54" fill="none" xmlns="http://www.w3.org/2000/svg">
<g filter="url(#filter0_d)">
<path d="M26.9545 16L30.1496 23.5896L38 24.4542L32.066 29.9302L33.801 38L26.9545 33.7728L20.199 38L21.934 29.9302L16 24.4542L23.8504 23.5896L26.9545 16Z" fill="#4AF6CD"/>
</g>
<g filter="url(#filter1_d)">
<path d="M59.9545 16L63.1496 23.5896L71 24.4542L65.066 29.9302L66.801 38L59.9545 33.7728L53.199 38L54.934 29.9302L49 24.4542L56.8504 23.5896L59.9545 16Z" fill="#4AF6CD"/>
</g>
<g filter="url(#filter2_d)">
<path d="M92.9545 16L96.1496 23.5896L104 24.4542L98.066 29.9302L99.801 38L92.9545 33.7728L86.199 38L87.934 29.9302L82 24.4542L89.8504 23.5896L92.9545 16Z" fill="#4AF6CD"/>
</g>
<g filter="url(#filter3_d)">
<path d="M125.955 16L129.15 23.5896L137 24.4542L131.066 29.9302L132.801 38L125.954 33.7728L119.199 38L120.934 29.9302L115 24.4542L122.85 23.5896L125.955 16Z" fill="#4AF6CD"/>
</g>
<g filter="url(#filter4_d)">
<path d="M158.955 16L162.15 23.5896L170 24.4542L164.066 29.9302L165.801 38L158.954 33.7728L152.199 38L153.934 29.9302L148 24.4542L155.85 23.5896L158.955 16Z" fill="#4AF6CD"/>
</g>
<defs>
<filter id="filter0_d" x="0" y="0" width="54" height="54" filterUnits="userSpaceOnUse" color-interpolation-filters="sRGB">
<feFlood flood-opacity="0" result="BackgroundImageFix"/>
<feColorMatrix in="SourceAlpha" type="matrix" values="0 0 0 0 0 0 0 0 0 0 0 0 0 0 0 0 0 0 127 0"/>
<feOffset/>
<feGaussianBlur stdDeviation="8"/>
<feColorMatrix type="matrix" values="0 0 0 0 0.289399 0 0 0 0 0.964817 0 0 0 0 0.803534 0 0 0 0.544186 0"/>
<feBlend mode="normal" in2="BackgroundImageFix" result="effect1_dropShadow"/>
<feBlend mode="normal" in="SourceGraphic" in2="effect1_dropShadow" result="shape"/>
</filter>
<filter id="filter1_d" x="33" y="0" width="54" height="54" filterUnits="userSpaceOnUse" color-interpolation-filters="sRGB">
<feFlood flood-opacity="0" result="BackgroundImageFix"/>
<feColorMatrix in="SourceAlpha" type="matrix" values="0 0 0 0 0 0 0 0 0 0 0 0 0 0 0 0 0 0 127 0"/>
<feOffset/>
<feGaussianBlur stdDeviation="8"/>
<feColorMatrix type="matrix" values="0 0 0 0 0.289399 0 0 0 0 0.964817 0 0 0 0 0.803534 0 0 0 0.544186 0"/>
<feBlend mode="normal" in2="BackgroundImageFix" result="effect1_dropShadow"/>
<feBlend mode="normal" in="SourceGraphic" in2="effect1_dropShadow" result="shape"/>
</filter>
<filter id="filter2_d" x="66" y="0" width="54" height="54" filterUnits="userSpaceOnUse" color-interpolation-filters="sRGB">
<feFlood flood-opacity="0" result="BackgroundImageFix"/>
<feColorMatrix in="SourceAlpha" type="matrix" values="0 0 0 0 0 0 0 0 0 0 0 0 0 0 0 0 0 0 127 0"/>
<feOffset/>
<feGaussianBlur stdDeviation="8"/>
<feColorMatrix type="matrix" values="0 0 0 0 0.289399 0 0 0 0 0.964817 0 0 0 0 0.803534 0 0 0 0.544186 0"/>
<feBlend mode="normal" in2="BackgroundImageFix" result="effect1_dropShadow"/>
<feBlend mode="normal" in="SourceGraphic" in2="effect1_dropShadow" result="shape"/>
</filter>
<filter id="filter3_d" x="99" y="0" width="54" height="54" filterUnits="userSpaceOnUse" color-interpolation-filters="sRGB">
<feFlood flood-opacity="0" result="BackgroundImageFix"/>
<feColorMatrix in="SourceAlpha" type="matrix" values="0 0 0 0 0 0 0 0 0 0 0 0 0 0 0 0 0 0 127 0"/>
<feOffset/>
<feGaussianBlur stdDeviation="8"/>
<feColorMatrix type="matrix" values="0 0 0 0 0.289399 0 0 0 0 0.964817 0 0 0 0 0.803534 0 0 0 0.544186 0"/>
<feBlend mode="normal" in2="BackgroundImageFix" result="effect1_dropShadow"/>
<feBlend mode="normal" in="SourceGraphic" in2="effect1_dropShadow" result="shape"/>
</filter>
<filter id="filter4_d" x="132" y="0" width="54" height="54" filterUnits="userSpaceOnUse" color-interpolation-filters="sRGB">
<feFlood flood-opacity="0" result="BackgroundImageFix"/>
<feColorMatrix in="SourceAlpha" type="matrix" values="0 0 0 0 0 0 0 0 0 0 0 0 0 0 0 0 0 0 127 0"/>
<feOffset/>
<feGaussianBlur stdDeviation="8"/>
<feColorMatrix type="matrix" values="0 0 0 0 0.289399 0 0 0 0 0.964817 0 0 0 0 0.803534 0 0 0 0.544186 0"/>
<feBlend mode="normal" in2="BackgroundImageFix" result="effect1_dropShadow"/>
<feBlend mode="normal" in="SourceGraphic" in2="effect1_dropShadow" result="shape"/>
</filter>
</defs>
</svg>
