<svg width="24" height="24" viewBox="0 0 24 24" fill="none" xmlns="http://www.w3.org/2000/svg">
<circle cx="12" cy="12" r="12" fill="#FCDB50"/>
<g clip-path="url(#clip0)">
<path d="M16.8638 11.6713L13.888 8.6955C13.7064 8.51394 13.412 8.51394 13.2304 8.6955C13.0488 8.8771 13.0488 9.17148 13.2304 9.35308L15.4125 11.5352H7.46497C7.2082 11.5352 7 11.7433 7 12.0001C7 12.2569 7.2082 12.4651 7.46497 12.4651H15.4125L13.2305 14.6472C13.0489 14.8288 13.0489 15.1232 13.2305 15.3048C13.3212 15.3955 13.4403 15.4409 13.5593 15.4409C13.6783 15.4409 13.7973 15.3955 13.8881 15.3048L16.8638 12.3289C17.0454 12.1473 17.0454 11.8529 16.8638 11.6713Z" fill="#2F2F2F"/>
</g>
<defs>
<clipPath id="clip0">
<rect width="10" height="10" fill="white" transform="translate(7 7)"/>
</clipPath>
</defs>
</svg>
