<svg width="24" height="24" viewBox="0 0 24 24" fill="none" xmlns="http://www.w3.org/2000/svg">
<circle r="12" transform="matrix(-1 0 0 1 12 12)" fill="#FCDB50"/>
<g clip-path="url(#clip0)">
<path d="M7.13618 11.6713L10.112 8.6955C10.2936 8.51394 10.588 8.51394 10.7696 8.6955C10.9512 8.8771 10.9512 9.17148 10.7696 9.35308L8.58753 11.5352H16.535C16.7918 11.5352 17 11.7433 17 12.0001C17 12.2569 16.7918 12.4651 16.535 12.4651H8.58753L10.7695 14.6472C10.9511 14.8288 10.9511 15.1232 10.7695 15.3048C10.6788 15.3955 10.5597 15.4409 10.4407 15.4409C10.3217 15.4409 10.2027 15.3955 10.1119 15.3048L7.13618 12.3289C6.95458 12.1473 6.95458 11.8529 7.13618 11.6713Z" fill="#2F2F2F"/>
</g>
<defs>
<clipPath id="clip0">
<rect width="10" height="10" fill="white" transform="matrix(-1 0 0 1 17 7)"/>
</clipPath>
</defs>
</svg>
