<svg width="20" height="20" viewBox="0 0 20 20" fill="none" xmlns="http://www.w3.org/2000/svg">
<path d="M19.4117 18.2353L1.76461 0.58822C1.43989 0.263501 0.912844 0.263547 0.588178 0.588214C0.263511 0.91288 0.263514 1.43998 0.588185 1.76465L18.2352 19.4117C18.56 19.7364 19.087 19.7364 19.4117 19.4117C19.7363 19.087 19.7364 18.56 19.4117 18.2353Z" fill="#2A2A2A"/>
<path d="M0.588337 18.2353L18.2354 0.58822C18.5601 0.263501 19.0872 0.263547 19.4118 0.588214C19.7365 0.91288 19.7365 1.43998 19.4118 1.76465L1.76476 19.4117C1.44005 19.7364 0.912997 19.7364 0.588331 19.4117C0.263664 19.087 0.263618 18.56 0.588337 18.2353Z" fill="#2A2A2A"/>
</svg>
