<svg width="14" height="14" viewBox="0 0 14 14" fill="none" xmlns="http://www.w3.org/2000/svg">
<g clip-path="url(#clip0)">
<path d="M13.2402 6.0242H7.97672V0.760664C7.97672 0.520889 7.65113 0.000976562 6.99997 0.000976562C6.34881 0.000976562 6.02322 0.520917 6.02322 0.760664V6.02423H0.759688C0.519941 6.0242 0 6.34979 0 7.00092C0 7.65205 0.519941 7.97767 0.759688 7.97767H6.02325V13.2412C6.02325 13.4809 6.34881 14.0009 7 14.0009C7.65119 14.0009 7.97675 13.4809 7.97675 13.2412V7.97767H13.2403C13.48 7.97767 14 7.6521 14 7.00092C14 6.34973 13.48 6.0242 13.2402 6.0242Z" fill="#2F2F2F"/>
</g>
<defs>
<clipPath id="clip0">
<rect width="14" height="14" fill="white"/>
</clipPath>
</defs>
</svg>
