<svg width="40" height="40" fill="none" xmlns="http://www.w3.org/2000/svg"><g clip-path="url(#clip0)"><path d="M39.753 14.838l-6.149-4.665-.005-.003 2.838-2.554 1.497 1.498c.386.385 1.067.103 1.067-.442V2.675a.625.625 0 00-.625-.625h-5.997c-.545 0-.828.681-.442 1.067l1.845 1.845-3.223 2.901L20.429.178a.625.625 0 00-.755 0l-7.66 5.811V3.966h.707c.345 0 .625-.28.625-.625V.676A.625.625 0 0012.72.05H3.392a.625.625 0 00-.624.625V3.34c0 .345.28.625.624.625H4.1v8.026L.35 14.838a.625.625 0 00.377 1.122h3.04v7.116L.21 26.194a.63.63 0 00-.03.911l1.771 1.771c.23.23.61.242.854.028l.962-.844v2.602a.625.625 0 101.25 0v-3.697l7.203-6.315.759.758a1.87 1.87 0 002.591.057l3.277-3.003a.625.625 0 00-.845-.922l-3.276 3.004a.623.623 0 01-.864-.019l-1.172-1.172a.625.625 0 00-.854-.029L2.421 27.58l-.886-.886 10.358-9.079a.626.626 0 01.853.029l1.154 1.153a.625.625 0 00.864.018l7.114-6.521a.623.623 0 01.864.019l1.827 1.827a.624.624 0 00.86.023l9.679-8.712a.631.631 0 00.024-.906L33.887 3.3h3.864v3.865l-.85-.85a.625.625 0 00-.86-.023l-10.658 9.592a.625.625 0 01-.86-.022l-1.819-1.82a.625.625 0 00-.864-.019l-1.212 1.111a.625.625 0 00.845.921l.77-.706 1.397 1.396a1.874 1.874 0 002.58.068l6.469-5.823c.04.068 4.83 3.722 4.83 3.722H35.71a.625.625 0 00-.624.624V38.7H5.016v-4.04a.625.625 0 00-1.249 0v4.665c0 .345.28.625.625.625H35.71c.345 0 .625-.28.625-.625V15.96h3.04a.625.625 0 00.378-1.122zM4.017 2.716V1.3h8.08v1.416h-8.08zm6.747 1.25v2.971L5.35 11.044V3.966h5.414zm14.27 8.87l-1.409-1.408a1.87 1.87 0 00-2.591-.056l-6.674 6.117-.73-.73a1.879 1.879 0 00-2.56-.085L5.016 21.98v-6.645a.625.625 0 00-.624-.624H2.584L20.05 1.46l9.562 7.254-4.58 4.122z" fill="#fff"/><path d="M20.051 22.707a6.63 6.63 0 00-6.622 6.622 6.63 6.63 0 006.622 6.622 6.63 6.63 0 006.622-6.622 6.63 6.63 0 00-6.622-6.622zm0 11.994a5.379 5.379 0 01-5.372-5.372 5.379 5.379 0 015.372-5.373 5.379 5.379 0 015.373 5.373A5.379 5.379 0 0120.05 34.7z" fill="#FCDB50"/><path d="M21.217 28.704h-.541v-1.749h1.374a.625.625 0 000-1.25h-1.374v-.707a.625.625 0 00-1.25 0v.708h-.541a1.46 1.46 0 00-1.458 1.457v1.333a1.46 1.46 0 001.458 1.458h.541v1.749h-1.374a.625.625 0 000 1.25h1.374v.707a.625.625 0 001.25 0v-.708h.541a1.46 1.46 0 001.458-1.457v-1.333a1.46 1.46 0 00-1.458-1.458zm-1.79 0h-.542a.209.209 0 01-.208-.208v-1.333c0-.115.093-.208.208-.208h.541v1.75zm1.998 2.79a.208.208 0 01-.208.209h-.541v-1.75h.541c.115 0 .208.094.208.209v1.332z" fill="#FCDB50"/></g><defs><clipPath id="clip0"><path fill="#fff" d="M0 0h40v40H0z"/></clipPath></defs></svg>