<svg width="40" height="40" fill="none" xmlns="http://www.w3.org/2000/svg"><g clip-path="url(#clip0)"><path d="M7.852 28.555a.586.586 0 00.585-.586v-5.625a.586.586 0 10-1.171 0v5.625c0 .323.262.586.586.586zm3.203 0a.586.586 0 00.586-.586v-5.625a.586.586 0 10-1.172 0v5.625c0 .323.262.586.586.586zm3.125 0a.586.586 0 00.586-.586v-5.625a.586.586 0 10-1.172 0v5.625c0 .323.262.586.586.586zm3.203-2.813a.586.586 0 00.586-.586v-2.812a.586.586 0 10-1.172 0v2.812c0 .324.262.586.586.586z" fill="#FCDB50"/><path d="M38.164 8.672h-1.172a.586.586 0 100 1.172h1.172c.323 0 .586.263.586.586v23.984a.586.586 0 01-.586.586h-3.42c.064-.183.1-.38.1-.586v-1.992a.586.586 0 10-1.172 0v1.992a.586.586 0 01-.586.586H14.433a1.878 1.878 0 00-1.152-2.484V31.25h1.077a2.92 2.92 0 001.986-.776l5.603-5.168c.6-.553.944-1.338.944-2.153v-2.255a1.37 1.37 0 00-1.367-1.367H10.468V5.586c0-.323.263-.586.586-.586h22.031c.323 0 .586.263.586.586v24.102a.586.586 0 001.172 0V5.585a1.76 1.76 0 00-1.758-1.758h-22.03a1.76 1.76 0 00-1.758 1.758V19.53h-4.14v-3.164a1.76 1.76 0 00-1.759-1.758H1.68a1.76 1.76 0 00-1.758 1.758c0 .97.788 1.758 1.758 1.758h2.304v11.758c0 .714.551 1.301 1.25 1.36v1.273a1.878 1.878 0 00-1.289 1.78c0 1.035.841 1.876 1.875 1.876.83 0 1.534-.541 1.781-1.29h3.314c.246.748.951 1.29 1.78 1.29h25.47a1.76 1.76 0 001.757-1.758V10.43a1.76 1.76 0 00-1.758-1.758zM12.11 32.516a1.883 1.883 0 00-1.194 1.195H7.6a1.882 1.882 0 00-1.195-1.195V31.25h5.703v1.266zM1.094 16.367c0-.323.263-.586.586-.586h1.718c.324 0 .586.263.586.586v.586H1.68a.586.586 0 01-.586-.586zm4.062 13.516v-9.18h16.367c.108 0 .196.088.196.195v2.255c0 .49-.207.96-.566 1.292l-5.604 5.167c-.325.3-.749.466-1.191.466H5.352a.195.195 0 01-.196-.195zM5.82 35a.704.704 0 11.002-1.408A.704.704 0 015.82 35zm6.875-1.406a.704.704 0 11-.001 1.408.704.704 0 01.001-1.408z" fill="#fff"/><path d="M30.547 14.336c0-.754-.614-1.367-1.367-1.367h-1.485c-.753 0-1.367.613-1.367 1.367v1.484c0 .754.614 1.367 1.367 1.367h1.485c.753 0 1.367-.613 1.367-1.367v-1.484zm-1.172 1.484a.196.196 0 01-.195.196h-1.485a.195.195 0 01-.195-.196v-1.484c0-.108.088-.195.195-.195h1.485c.108 0 .195.087.195.195v1.484zm1.172 5.078a1.37 1.37 0 00-1.367-1.367h-1.485a1.37 1.37 0 00-1.367 1.367v1.485c0 .754.614 1.367 1.367 1.367h1.485c.753 0 1.367-.613 1.367-1.367v-1.485zm-1.172 1.485a.196.196 0 01-.195.195h-1.485a.195.195 0 01-.195-.195v-1.485c0-.107.088-.195.195-.195h1.485c.108 0 .195.088.195.195v1.485zm-.195 3.711h-1.485c-.753 0-1.367.613-1.367 1.367v1.484c0 .754.614 1.367 1.367 1.367h1.485c.753 0 1.367-.613 1.367-1.367v-1.484c0-.754-.614-1.367-1.367-1.367zm.195 2.851a.196.196 0 01-.195.196h-1.485a.195.195 0 01-.195-.196v-1.484c0-.108.088-.195.195-.195h1.485c.108 0 .195.087.195.195v1.484zM24.14 13.32h-10a.586.586 0 100 1.172h10a.586.586 0 100-1.172zm-10 2.344a.586.586 0 100 1.172h3.152a.586.586 0 100-1.172H14.14zm5.495 0a.586.586 0 000 1.172h2.162a.586.586 0 100-1.172h-2.162zm4.505 10.781h-1.328a.586.586 0 000 1.172h1.329a.586.586 0 100-1.172zm0 2.345h-3.28a.586.586 0 100 1.17h3.28a.586.586 0 100-1.17z" fill="#FCDB50"/></g><defs><clipPath id="clip0"><path fill="#fff" d="M0 0h40v40H0z"/></clipPath></defs></svg>