<svg width="40" height="40" fill="none" xmlns="http://www.w3.org/2000/svg"><path d="M33.361 8.685a.626.626 0 00-.626.626v28.81a.627.627 0 01-.627.626H7.892a.627.627 0 01-.626-.626v-5.428a.626.626 0 00-1.253 0v5.428A1.88 1.88 0 007.892 40h24.217a1.881 1.881 0 001.878-1.879V9.311a.626.626 0 00-.626-.626zM32.109 0H7.89a1.881 1.881 0 00-1.878 1.879v26.806a.626.626 0 001.252 0V1.879c0-.345.281-.626.627-.626h24.217c.345 0 .626.28.626.626V5.97a.626.626 0 001.253 0V1.879A1.881 1.881 0 0032.108 0z" fill="#fff"/><path d="M30.689 2.672H9.31a.626.626 0 00-.626.627v12.693c0 .346.28.626.626.626h21.38c.346 0 .626-.28.626-.626V3.299a.626.626 0 00-.626-.627zm-.626 12.693H9.937V3.925h20.126v11.44zm.626 2.673h-9.353a.626.626 0 00-.626.626v8.017c0 .345.28.626.626.626h9.353c.346 0 .626-.28.626-.626v-8.017a.626.626 0 00-.626-.626zm-.626 8.016h-8.1V19.29h8.1v6.764z" fill="#fff"/><path d="M18.664 18.038H9.31a.626.626 0 00-.626.626v8.017c0 .345.28.626.626.626h9.353c.346 0 .626-.28.626-.626v-8.017a.626.626 0 00-.626-.626zm-.626 8.016h-8.1V19.29h8.1v6.764zm12.651 2.004h-9.353a.626.626 0 00-.626.627v8.017c0 .345.28.626.626.626h9.353c.346 0 .626-.28.626-.627v-8.016a.626.626 0 00-.626-.627zm-.626 8.017h-8.1v-6.764h8.1v6.764z" fill="#FCDB50"/><path d="M18.664 28.058H9.31a.626.626 0 00-.626.627v8.017c0 .345.28.626.626.626h9.353c.346 0 .626-.28.626-.627v-8.016a.626.626 0 00-.626-.627zm-.626 8.017h-8.1v-6.764h8.1v6.764z" fill="#fff"/><path d="M15.992 22.046h-1.378v-1.378a.626.626 0 10-1.253 0v1.378h-1.378a.626.626 0 000 1.253h1.378v1.378a.626.626 0 001.253 0v-1.378h1.378a.626.626 0 100-1.253z" fill="#FCDB50"/><path d="M28.017 22.046h-4.009a.626.626 0 000 1.253h4.009a.626.626 0 100-1.253zM14.873 32.693l1.562-1.561a.626.626 0 10-.886-.886l-1.562 1.561-1.56-1.56a.626.626 0 10-.887.885l1.562 1.561-1.562 1.561a.632.632 0 00-.033.85c.234.274.664.29.919.036l1.561-1.561 1.562 1.561a.632.632 0 00.919-.036.632.632 0 00-.034-.85l-1.56-1.56z" fill="#fff"/><path d="M28.46 30.246a.626.626 0 00-.886 0l-4.009 4.008c-.385.386-.105 1.07.443 1.07.16 0 .32-.061.443-.184l4.008-4.008a.626.626 0 000-.886zm-3.34.668l-.669-.668a.626.626 0 00-.886.886l.668.668a.633.633 0 00.92-.036.632.632 0 00-.034-.85zm3.34 3.341l-.668-.669a.626.626 0 00-.886.886l.668.668a.632.632 0 00.919-.036.632.632 0 00-.033-.85z" fill="#FCDB50"/><path d="M28.46 8.868L24.45 4.86a.626.626 0 00-.886 0l-4.008 4.008a.626.626 0 00-.183.443v4.676c0 .346.28.627.626.627h2.672c.346 0 .627-.28.627-.627v-2.046h1.42v2.046c0 .346.28.627.625.627h2.673c.346 0 .626-.28.626-.627V9.311a.627.627 0 00-.183-.443zm-1.07 4.493h-1.42v-2.046a.626.626 0 00-.626-.626h-2.672a.626.626 0 00-.626.626v2.046h-1.42v-3.79l3.382-3.383L27.39 9.57v3.791z" fill="#fff"/><path d="M17.103 5.528a.626.626 0 00-.886 0l-5.01 5.01c-.387.386-.106 1.07.442 1.07.16 0 .32-.062.443-.184l5.01-5.01a.626.626 0 000-.886zm.667 4.008a.626.626 0 00-.885 0L14.88 11.54a.632.632 0 00-.034.85c.235.274.665.29.92.036l2.004-2.004a.626.626 0 000-.886z" fill="#FCDB50"/></svg>