<svg width="40" height="40" fill="none" xmlns="http://www.w3.org/2000/svg"><path d="M39.363 8.832A.637.637 0 0040 8.195V4.034a.637.637 0 00-.637-.637H8.017A4.04 4.04 0 004.034 0 4.039 4.039 0 000 4.034v21.741a.637.637 0 101.274 0V4.034a2.763 2.763 0 012.76-2.76 2.763 2.763 0 012.76 2.76v28.993a4.019 4.019 0 00-2.76-1.095 4.019 4.019 0 00-2.76 1.095v-3.759a.637.637 0 10-1.274 0v6.698A4.039 4.039 0 004.034 40h35.329a.637.637 0 00.637-.637V11.507a.637.637 0 10-1.274 0v27.22H4.034a2.763 2.763 0 01-2.76-2.761 2.763 2.763 0 012.76-2.76 2.763 2.763 0 012.76 2.76.637.637 0 101.274 0V4.671h30.658v3.524c0 .352.285.637.637.637z" fill="#fff"/><path d="M35.647 15.059l-11.89-8.153a.637.637 0 00-.72 0l-11.89 8.153a.637.637 0 00.36 1.162h2.76v11.592c0 .352.286.637.638.637H31.89a.637.637 0 00.637-.637V16.221h2.76a.637.637 0 00.36-1.162zm-3.757-.112a.637.637 0 00-.637.637v11.592H15.54V15.584a.637.637 0 00-.637-.637h-1.341l9.834-6.744 9.834 6.744h-1.34z" fill="#fff"/><path d="M25.435 19.023a2.67 2.67 0 00-2.038.946 2.67 2.67 0 00-3.477-.524.637.637 0 00-1.236.215v5.436a.637.637 0 101.274 0v-3.398a1.402 1.402 0 012.802 0v3.398a.637.637 0 101.274 0v-3.398a1.402 1.402 0 012.803 0v3.398a.637.637 0 101.273 0v-3.398c0-1.475-1.2-2.675-2.675-2.675zm2.038-2.038h-1.18l1.63-1.63a.637.637 0 00.187-.45 1.998 1.998 0 00-1.995-1.996 1.998 1.998 0 00-1.996 1.995.637.637 0 101.274 0 .73.73 0 01.582-.708.73.73 0 01.825.481l-2.495 2.495c-.393.393-.104 1.087.45 1.087h2.718a.637.637 0 100-1.274zm7.814 13.588h-23.78a.637.637 0 00-.636.637v4.756c0 .352.284.637.636.637h16.306a.637.637 0 100-1.274H12.144v-3.482h2.123v1.401a.637.637 0 101.274 0v-1.4h2.123v1.4a.637.637 0 101.274 0v-1.4h2.124v1.4a.637.637 0 101.273 0v-1.4h2.124v1.4a.637.637 0 101.274 0v-1.4h2.123v1.4a.637.637 0 101.273 0v-1.4h2.124v1.4a.637.637 0 101.274 0v-1.4h2.123v3.481h-3.185a.637.637 0 100 1.274h3.822a.637.637 0 00.637-.637V31.21a.637.637 0 00-.637-.637z" fill="#FCDB50"/></svg>