<svg width="16" height="13" fill="none" xmlns="http://www.w3.org/2000/svg"><path d="M1.536 3.875c.202.143.812.567 1.83 1.272 1.018.706 1.798 1.249 2.34 1.63.059.041.185.132.379.272a10.517 10.517 0 00.946.63c.182.106.353.187.514.24.16.054.31.08.446.08h.018a1.4 1.4 0 00.446-.08 2.74 2.74 0 00.514-.24 10.517 10.517 0 00.946-.63l.38-.272c.547-.381 1.94-1.349 4.178-2.902a4.26 4.26 0 001.09-1.098c.291-.429.437-.878.437-1.348 0-.393-.142-.73-.424-1.01A1.38 1.38 0 0014.57 0H1.43C.97 0 .618.155.37.464.123.774 0 1.161 0 1.624c0 .376.164.782.491 1.22.327.437.676.781 1.045 1.031z" fill="#FCDB50"/><path d="M15.107 4.83a185.599 185.599 0 00-4.446 3.08c-.34.25-.615.446-.826.586-.212.14-.493.282-.844.428a2.569 2.569 0 01-.982.219h-.018a2.57 2.57 0 01-.982-.219 5.098 5.098 0 01-.844-.428c-.211-.14-.486-.335-.826-.585-.803-.59-2.282-1.616-4.437-3.08A4.73 4.73 0 010 4.053v7.089c0 .393.14.729.42 1.009.28.28.616.42 1.009.42h13.143c.392 0 .729-.14 1.008-.42.28-.28.42-.616.42-1.01V4.055a4.922 4.922 0 01-.893.776z" fill="#FCDB50"/></svg>