<svg width="24" height="24" fill="none" xmlns="http://www.w3.org/2000/svg"><path d="M12 0C5.383 0 0 5.383 0 12s5.383 12 12 12c4.017 0 7.945-2.098 9.34-4.989.507-1.053.278-1.773-.005-2.191-.45-.669-1.375-1.024-2.552-1.056v-.627c0-.671-.546-1.217-1.218-1.217a7.363 7.363 0 01-2.315-.368c-.425-.147-.95-.009-1.193.244l-1.413 1.066c-1.62-.882-2.64-1.9-3.51-3.508l1.02-1.357c.326-.325.441-.798.302-1.243a7.386 7.386 0 01-.37-2.32A1.216 1.216 0 008.87 5.217H6.435c-.672 0-1.218.546-1.218 1.218 0 6.809 5.54 12.348 12.348 12.348a1.22 1.22 0 001.218-1.218v-.77c.803.025 1.436.237 1.687.608.189.279.165.667-.07 1.153-1.23 2.55-4.763 4.4-8.4 4.4-6.042 0-10.957-4.914-10.957-10.956S5.958 1.043 12 1.043c6.042 0 10.956 4.915 10.956 10.957A.522.522 0 0024 12c0-6.617-5.383-12-12-12z" fill="#FCDB50"/></svg>