<svg width="40" height="40" fill="none" xmlns="http://www.w3.org/2000/svg"><g clip-path="url(#clip0)" fill="#FCDB50"><path d="M5.945 9.816c.078-.039.154-.08.228-.121.038.05.077.096.123.142l4.322 4.323c.27-.317.669-.517 1.1-.517.14 0 .28.02.413.06l.54.16.335-1.128L8.202 7.93a1.353 1.353 0 00-.247-.192l.011-.05c.012-.046.027-.08.04-.12.012-.029.023-.06.034-.092l.042-.1c.024-.058.05-.12.082-.185l.09-.183.103-.181c.043-.084.092-.156.148-.239l.09-.136.084-.11c.07-.093.135-.18.206-.256l.05-.055c.093-.102.187-.208.296-.298l.089-.08c.037-.034.074-.07.114-.1l.21-.154a2.151 2.151 0 01.31-.198 2 2 0 00.128-.072 1.62 1.62 0 01.283-.135c.05-.02.099-.04.149-.062l.087-.038c.032-.013.063-.028.094-.036l.232-.065c.046-.011.099-.027.153-.042.075-.022.148-.043.197-.05l.62-.09a.41.41 0 00.056-.8l-.611-.174a2.31 2.31 0 00-.328-.065c-.048-.007-.098-.014-.15-.023l-.268-.041a1.621 1.621 0 00-.232-.017l-.085-.003c-.07-.001-.12-.004-.173-.006a2.972 2.972 0 00-.519.01l-.118.01c-.18.015-.385.032-.59.081l-.331.067a4.529 4.529 0 00-.272.078l-.104.032a5.656 5.656 0 00-.684.253l-.03.013c-.188.077-.358.168-.523.256l-.137.073c-.01.004-.016.01-.026.015l-.16.097c-.142.086-.29.176-.427.278l-.229.163-.033.025-.226.18c-.06.047-.117.095-.17.142a2.036 2.036 0 00-1.113.572l-.485.483a3.39 3.39 0 00-.604.887C2.566 7.05 1.536 8.172 0 9.707l3.435 3.434c1.178-1.178 2.656-2.566 2.51-3.325zm26.935-.213l2.164.418 2.203-2.78a1.687 1.687 0 011.695-.589V5.455h-3.253v2.602h-3.504l.695 1.546z"/><path d="M13.242 10.305l.667-2.248h-2.916l2.249 2.248z"/><path d="M38.942 22.043v-8.336c-.059.08-.116.161-.179.24a7.26 7.26 0 01-3.453 2.404h.38v5.692h-8.715l4.083-5.569c.075-.094.143-.192.206-.293a6.177 6.177 0 006.345-2.149 6.159 6.159 0 001.208-5.068.532.532 0 00-.94-.225l-2.632 3.324-3.422-.663-1.43-3.18 2.634-3.324a.532.532 0 00-.432-.863 6.16 6.16 0 00-4.659 2.335 6.18 6.18 0 00-.642 6.665 4.13 4.13 0 00-.239.273l-5.285 6.287 1.28 1.28c.33.33.563.732.686 1.17h-.57a2.135 2.135 0 00-.5-.787l-7.275-7.276-.189.634.493.147c.371.11.677.357.861.697a1.44 1.44 0 01-.181 1.639c.038.34.009.684-.091 1.015l-.653 2.2 1.73 1.73H14.38l1.285-4.325a1.88 1.88 0 00-.002-1.086.77.77 0 00-.131-1.425l-1.142-.34L17.494 4.42l.097.03.804-1.557.316-2.428-1.34-.398-1.043 2.213-.168 1.745.1.03L13.155 14.5l-1.189-.353a.77.77 0 00-.905 1.088 1.88 1.88 0 00-.622.93l-1.743 5.877H7.065V16.35h2.16l.387-1.301c.097-.326.164-.416.358-.688L6.483 10.79c-.478.658-.95 1.34-1.686 2.07l-.983.983v8.2H2.756v11.386a6.506 6.506 0 006.506 6.505h24.233A6.505 6.505 0 0040 33.428V22.043h-1.058zm-25.535-4.044a.818.818 0 111.567.466l-1.062 3.578h-1.706l1.201-4.044zm-2.635-.782a.818.818 0 011.567.465l-1.295 4.36H9.34l1.433-4.825z"/><path d="M17.628 8.057l-1.259 4.236 4.059 4.058h2.175l3.62-4.304a7.338 7.338 0 01-.364-3.99h-8.231z"/></g><defs><clipPath id="clip0"><path fill="#fff" d="M0 0h40v40H0z"/></clipPath></defs></svg>