<svg width="26" height="40" fill="none" xmlns="http://www.w3.org/2000/svg"><path d="M13.019 33.605l-7.014-7.414 2.27-2.147 4.737 5.007 4.71-5.004 2.275 2.141-6.978 7.417zm12.95-2.98V9.375c0-5.17-4.206-9.375-9.375-9.375H9.406C4.236 0 .031 4.206.031 9.375v21.25C.031 35.795 4.237 40 9.406 40h7.188c5.17 0 9.375-4.206 9.375-9.375zm-9.375-27.5a6.257 6.257 0 016.25 6.25v21.25a6.257 6.257 0 01-6.25 6.25H9.406a6.257 6.257 0 01-6.25-6.25V9.375a6.257 6.257 0 016.25-6.25h7.188zM13 6.328a1.562 1.562 0 100 3.125 1.562 1.562 0 000-3.125zm0 6.25a1.562 1.562 0 100 3.125 1.562 1.562 0 000-3.125zm0 6.25a1.562 1.562 0 100 3.125 1.562 1.562 0 000-3.125z" fill="#FCDB50"/></svg>