<svg width="16" height="16" fill="none" xmlns="http://www.w3.org/2000/svg"><path d="M15.992 12.619a.773.773 0 01-.237.677l-2.253 2.236a1.268 1.268 0 01-.398.288 1.59 1.59 0 01-.482.152 2.313 2.313 0 01-.322.017c-.215 0-.562-.036-1.042-.11-.48-.073-1.067-.254-1.761-.542-.695-.287-1.482-.72-2.363-1.295-.881-.576-1.818-1.367-2.812-2.372-.79-.779-1.445-1.524-1.965-2.235A15.93 15.93 0 011.104 7.46a10.628 10.628 0 01-.712-1.643 8.717 8.717 0 01-.321-1.27 4.195 4.195 0 01-.068-.839c.011-.203.017-.316.017-.338.022-.158.073-.32.152-.483A1.27 1.27 0 01.46 2.49L2.713.237A.746.746 0 013.255 0a.63.63 0 01.39.127c.112.085.208.19.287.313l1.813 3.44c.101.18.13.378.085.593a1.056 1.056 0 01-.288.542l-.83.83a.282.282 0 00-.06.11.418.418 0 00-.025.127c.045.237.147.508.305.813.135.27.344.601.627.99.282.39.683.84 1.202 1.347.508.52.96.923 1.355 1.211.395.288.726.5.991.636.265.135.469.217.61.245l.211.042c.023 0 .06-.008.11-.025a.283.283 0 00.11-.06l.966-.982c.204-.18.44-.27.712-.27.192 0 .344.033.457.1h.017l3.269 1.932c.237.147.378.333.423.559z" fill="#FCDB50"/></svg>