<?xml version="1.0" encoding="utf-8"?><svg xmlns="http://www.w3.org/2000/svg" xmlns:xlink="http://www.w3.org/1999/xlink"><symbol viewBox="0 0 24 24" id="arrow-next" xmlns="http://www.w3.org/2000/svg"><circle cx="12" cy="12" r="12"/><g clip-path="url(#aclip0)"><path d="M16.864 11.671l-2.976-2.976a.465.465 0 00-.658.658l2.182 2.182H7.465a.465.465 0 100 .93h7.947l-2.182 2.182a.465.465 0 10.658.658l2.976-2.976a.465.465 0 000-.658z"/></g><defs><clipPath id="aclip0"><path transform="translate(7 7)" d="M0 0h10v10H0z"/></clipPath></defs></symbol><symbol viewBox="0 0 24 24" id="arrow-prev" xmlns="http://www.w3.org/2000/svg"><circle r="12" transform="matrix(-1 0 0 1 12 12)"/><g clip-path="url(#bclip0)"><path d="M7.136 11.671l2.976-2.976a.465.465 0 01.658.658l-2.182 2.182h7.947a.465.465 0 110 .93H8.588l2.182 2.182a.465.465 0 11-.658.658l-2.976-2.976a.465.465 0 010-.658z"/></g><defs><clipPath id="bclip0"><path transform="matrix(-1 0 0 1 17 7)" d="M0 0h10v10H0z"/></clipPath></defs></symbol><symbol viewBox="0 0 20 20" id="close" xmlns="http://www.w3.org/2000/svg"><path d="M19.412 18.235L1.765.588A.832.832 0 00.588 1.765l17.647 17.647a.832.832 0 001.177-1.177z"/><path d="M.588 18.235L18.235.588a.832.832 0 011.177 1.177L1.765 19.412a.832.832 0 01-1.177-1.177z"/></symbol><symbol viewBox="0 0 40 40" id="icon1" xmlns="http://www.w3.org/2000/svg"><path d="M39.363 8.832A.637.637 0 0040 8.195V4.034a.637.637 0 00-.637-.637H8.017A4.04 4.04 0 004.034 0 4.039 4.039 0 000 4.034v21.741a.637.637 0 101.274 0V4.034a2.763 2.763 0 012.76-2.76 2.763 2.763 0 012.76 2.76v28.993a4.019 4.019 0 00-2.76-1.095 4.019 4.019 0 00-2.76 1.095v-3.759a.637.637 0 10-1.274 0v6.698A4.039 4.039 0 004.034 40h35.329a.637.637 0 00.637-.637V11.507a.637.637 0 10-1.274 0v27.22H4.034a2.763 2.763 0 01-2.76-2.761 2.763 2.763 0 012.76-2.76 2.763 2.763 0 012.76 2.76.637.637 0 101.274 0V4.671h30.658v3.524c0 .352.285.637.637.637z"/><path d="M35.647 15.059l-11.89-8.153a.637.637 0 00-.72 0l-11.89 8.153a.637.637 0 00.36 1.162h2.76v11.592c0 .352.286.637.638.637H31.89a.637.637 0 00.637-.637V16.221h2.76a.637.637 0 00.36-1.162zm-3.757-.112a.637.637 0 00-.637.637v11.592H15.54V15.584a.637.637 0 00-.637-.637h-1.341l9.834-6.744 9.834 6.744h-1.34z"/><path d="M25.435 19.023a2.67 2.67 0 00-2.038.946 2.67 2.67 0 00-3.477-.524.637.637 0 00-1.236.215v5.436a.637.637 0 101.274 0v-3.398a1.402 1.402 0 012.802 0v3.398a.637.637 0 101.274 0v-3.398a1.402 1.402 0 012.803 0v3.398a.637.637 0 101.273 0v-3.398c0-1.475-1.2-2.675-2.675-2.675zm2.038-2.038h-1.18l1.63-1.63a.637.637 0 00.187-.45 1.998 1.998 0 00-1.995-1.996 1.998 1.998 0 00-1.996 1.995.637.637 0 101.274 0 .73.73 0 01.582-.708.73.73 0 01.825.481l-2.495 2.495c-.393.393-.104 1.087.45 1.087h2.718a.637.637 0 100-1.274zm7.814 13.588h-23.78a.637.637 0 00-.636.637v4.756c0 .352.284.637.636.637h16.306a.637.637 0 100-1.274H12.144v-3.482h2.123v1.401a.637.637 0 101.274 0v-1.4h2.123v1.4a.637.637 0 101.274 0v-1.4h2.124v1.4a.637.637 0 101.273 0v-1.4h2.124v1.4a.637.637 0 101.274 0v-1.4h2.123v1.4a.637.637 0 101.273 0v-1.4h2.124v1.4a.637.637 0 101.274 0v-1.4h2.123v3.481h-3.185a.637.637 0 100 1.274h3.822a.637.637 0 00.637-.637V31.21a.637.637 0 00-.637-.637z"/></symbol><symbol viewBox="0 0 40 40" id="icon2" xmlns="http://www.w3.org/2000/svg"><g clip-path="url(#eclip0)"><path d="M7.852 28.555a.586.586 0 00.585-.586v-5.625a.586.586 0 10-1.171 0v5.625c0 .323.262.586.586.586zm3.203 0a.586.586 0 00.586-.586v-5.625a.586.586 0 10-1.172 0v5.625c0 .323.262.586.586.586zm3.125 0a.586.586 0 00.586-.586v-5.625a.586.586 0 10-1.172 0v5.625c0 .323.262.586.586.586zm3.203-2.813a.586.586 0 00.586-.586v-2.812a.586.586 0 10-1.172 0v2.812c0 .324.262.586.586.586z"/><path d="M38.164 8.672h-1.172a.586.586 0 100 1.172h1.172c.323 0 .586.263.586.586v23.984a.586.586 0 01-.586.586h-3.42c.064-.183.1-.38.1-.586v-1.992a.586.586 0 10-1.172 0v1.992a.586.586 0 01-.586.586H14.433a1.878 1.878 0 00-1.152-2.484V31.25h1.077a2.92 2.92 0 001.986-.776l5.603-5.168c.6-.553.944-1.338.944-2.153v-2.255a1.37 1.37 0 00-1.367-1.367H10.468V5.586c0-.323.263-.586.586-.586h22.031c.323 0 .586.263.586.586v24.102a.586.586 0 001.172 0V5.585a1.76 1.76 0 00-1.758-1.758h-22.03a1.76 1.76 0 00-1.758 1.758V19.53h-4.14v-3.164a1.76 1.76 0 00-1.759-1.758H1.68a1.76 1.76 0 00-1.758 1.758c0 .97.788 1.758 1.758 1.758h2.304v11.758c0 .714.551 1.301 1.25 1.36v1.273a1.878 1.878 0 00-1.289 1.78c0 1.035.841 1.876 1.875 1.876.83 0 1.534-.541 1.781-1.29h3.314c.246.748.951 1.29 1.78 1.29h25.47a1.76 1.76 0 001.757-1.758V10.43a1.76 1.76 0 00-1.758-1.758zM12.11 32.516a1.883 1.883 0 00-1.194 1.195H7.6a1.882 1.882 0 00-1.195-1.195V31.25h5.703v1.266zM1.094 16.367c0-.323.263-.586.586-.586h1.718c.324 0 .586.263.586.586v.586H1.68a.586.586 0 01-.586-.586zm4.062 13.516v-9.18h16.367c.108 0 .196.088.196.195v2.255c0 .49-.207.96-.566 1.292l-5.604 5.167c-.325.3-.749.466-1.191.466H5.352a.195.195 0 01-.196-.195zM5.82 35a.704.704 0 11.002-1.408A.704.704 0 015.82 35zm6.875-1.406a.704.704 0 11-.001 1.408.704.704 0 01.001-1.408z"/><path d="M30.547 14.336c0-.754-.614-1.367-1.367-1.367h-1.485c-.753 0-1.367.613-1.367 1.367v1.484c0 .754.614 1.367 1.367 1.367h1.485c.753 0 1.367-.613 1.367-1.367v-1.484zm-1.172 1.484a.196.196 0 01-.195.196h-1.485a.195.195 0 01-.195-.196v-1.484c0-.108.088-.195.195-.195h1.485c.108 0 .195.087.195.195v1.484zm1.172 5.078a1.37 1.37 0 00-1.367-1.367h-1.485a1.37 1.37 0 00-1.367 1.367v1.485c0 .754.614 1.367 1.367 1.367h1.485c.753 0 1.367-.613 1.367-1.367v-1.485zm-1.172 1.485a.196.196 0 01-.195.195h-1.485a.195.195 0 01-.195-.195v-1.485c0-.107.088-.195.195-.195h1.485c.108 0 .195.088.195.195v1.485zm-.195 3.711h-1.485c-.753 0-1.367.613-1.367 1.367v1.484c0 .754.614 1.367 1.367 1.367h1.485c.753 0 1.367-.613 1.367-1.367v-1.484c0-.754-.614-1.367-1.367-1.367zm.195 2.851a.196.196 0 01-.195.196h-1.485a.195.195 0 01-.195-.196v-1.484c0-.108.088-.195.195-.195h1.485c.108 0 .195.087.195.195v1.484zM24.14 13.32h-10a.586.586 0 100 1.172h10a.586.586 0 100-1.172zm-10 2.344a.586.586 0 100 1.172h3.152a.586.586 0 100-1.172H14.14zm5.495 0a.586.586 0 000 1.172h2.162a.586.586 0 100-1.172h-2.162zm4.505 10.781h-1.328a.586.586 0 000 1.172h1.329a.586.586 0 100-1.172zm0 2.345h-3.28a.586.586 0 100 1.17h3.28a.586.586 0 100-1.17z"/></g><defs><clipPath id="eclip0"><path d="M0 0h40v40H0z"/></clipPath></defs></symbol><symbol viewBox="0 0 40 40" id="icon3" xmlns="http://www.w3.org/2000/svg"><path d="M33.361 8.685a.626.626 0 00-.626.626v28.81a.627.627 0 01-.627.626H7.892a.627.627 0 01-.626-.626v-5.428a.626.626 0 00-1.253 0v5.428A1.88 1.88 0 007.892 40h24.217a1.881 1.881 0 001.878-1.879V9.311a.626.626 0 00-.626-.626zM32.109 0H7.89a1.881 1.881 0 00-1.878 1.879v26.806a.626.626 0 001.252 0V1.879c0-.345.281-.626.627-.626h24.217c.345 0 .626.28.626.626V5.97a.626.626 0 001.253 0V1.879A1.881 1.881 0 0032.108 0z"/><path d="M30.689 2.672H9.31a.626.626 0 00-.626.627v12.693c0 .346.28.626.626.626h21.38c.346 0 .626-.28.626-.626V3.299a.626.626 0 00-.626-.627zm-.626 12.693H9.937V3.925h20.126v11.44zm.626 2.673h-9.353a.626.626 0 00-.626.626v8.017c0 .345.28.626.626.626h9.353c.346 0 .626-.28.626-.626v-8.017a.626.626 0 00-.626-.626zm-.626 8.016h-8.1V19.29h8.1v6.764zM18.664 18.038H9.31a.626.626 0 00-.626.626v8.017c0 .345.28.626.626.626h9.353c.346 0 .626-.28.626-.626v-8.017a.626.626 0 00-.626-.626zm-.626 8.016h-8.1V19.29h8.1v6.764zm12.651 2.004h-9.353a.626.626 0 00-.626.627v8.017c0 .345.28.626.626.626h9.353c.346 0 .626-.28.626-.627v-8.016a.626.626 0 00-.626-.627zm-.626 8.017h-8.1v-6.764h8.1v6.764zM18.664 28.058H9.31a.626.626 0 00-.626.627v8.017c0 .345.28.626.626.626h9.353c.346 0 .626-.28.626-.627v-8.016a.626.626 0 00-.626-.627zm-.626 8.017h-8.1v-6.764h8.1v6.764z"/><path d="M15.992 22.046h-1.378v-1.378a.626.626 0 10-1.253 0v1.378h-1.378a.626.626 0 000 1.253h1.378v1.378a.626.626 0 001.253 0v-1.378h1.378a.626.626 0 100-1.253zM28.017 22.046h-4.009a.626.626 0 000 1.253h4.009a.626.626 0 100-1.253zM14.873 32.693l1.562-1.561a.626.626 0 10-.886-.886l-1.562 1.561-1.56-1.56a.626.626 0 10-.887.885l1.562 1.561-1.562 1.561a.632.632 0 00-.033.85c.234.274.664.29.919.036l1.561-1.561 1.562 1.561a.632.632 0 00.919-.036.632.632 0 00-.034-.85l-1.56-1.56zM28.46 30.246a.626.626 0 00-.886 0l-4.009 4.008c-.385.386-.105 1.07.443 1.07.16 0 .32-.061.443-.184l4.008-4.008a.626.626 0 000-.886zm-3.34.668l-.669-.668a.626.626 0 00-.886.886l.668.668a.633.633 0 00.92-.036.632.632 0 00-.034-.85zm3.34 3.341l-.668-.669a.626.626 0 00-.886.886l.668.668a.632.632 0 00.919-.036.632.632 0 00-.033-.85zM28.46 8.868L24.45 4.86a.626.626 0 00-.886 0l-4.008 4.008a.626.626 0 00-.183.443v4.676c0 .346.28.627.626.627h2.672c.346 0 .627-.28.627-.627v-2.046h1.42v2.046c0 .346.28.627.625.627h2.673c.346 0 .626-.28.626-.627V9.311a.627.627 0 00-.183-.443zm-1.07 4.493h-1.42v-2.046a.626.626 0 00-.626-.626h-2.672a.626.626 0 00-.626.626v2.046h-1.42v-3.79l3.382-3.383L27.39 9.57v3.791zM17.103 5.528a.626.626 0 00-.886 0l-5.01 5.01c-.387.386-.106 1.07.442 1.07.16 0 .32-.062.443-.184l5.01-5.01a.626.626 0 000-.886zm.667 4.008a.626.626 0 00-.885 0L14.88 11.54a.632.632 0 00-.034.85c.235.274.665.29.92.036l2.004-2.004a.626.626 0 000-.886z"/></symbol><symbol viewBox="0 0 40 40" id="icon4" xmlns="http://www.w3.org/2000/svg"><g clip-path="url(#gclip0)"><path d="M39.753 14.838l-6.149-4.665-.005-.003 2.838-2.554 1.497 1.498c.386.385 1.067.103 1.067-.442V2.675a.625.625 0 00-.625-.625h-5.997c-.545 0-.828.681-.442 1.067l1.845 1.845-3.223 2.901L20.429.178a.625.625 0 00-.755 0l-7.66 5.811V3.966h.707c.345 0 .625-.28.625-.625V.676A.625.625 0 0012.72.05H3.392a.625.625 0 00-.624.625V3.34c0 .345.28.625.624.625H4.1v8.026L.35 14.838a.625.625 0 00.377 1.122h3.04v7.116L.21 26.194a.63.63 0 00-.03.911l1.771 1.771c.23.23.61.242.854.028l.962-.844v2.602a.625.625 0 101.25 0v-3.697l7.203-6.315.759.758a1.87 1.87 0 002.591.057l3.277-3.003a.625.625 0 00-.845-.922l-3.276 3.004a.623.623 0 01-.864-.019l-1.172-1.172a.625.625 0 00-.854-.029L2.421 27.58l-.886-.886 10.358-9.079a.626.626 0 01.853.029l1.154 1.153a.625.625 0 00.864.018l7.114-6.521a.623.623 0 01.864.019l1.827 1.827a.624.624 0 00.86.023l9.679-8.712a.631.631 0 00.024-.906L33.887 3.3h3.864v3.865l-.85-.85a.625.625 0 00-.86-.023l-10.658 9.592a.625.625 0 01-.86-.022l-1.819-1.82a.625.625 0 00-.864-.019l-1.212 1.111a.625.625 0 00.845.921l.77-.706 1.397 1.396a1.874 1.874 0 002.58.068l6.469-5.823c.04.068 4.83 3.722 4.83 3.722H35.71a.625.625 0 00-.624.624V38.7H5.016v-4.04a.625.625 0 00-1.249 0v4.665c0 .345.28.625.625.625H35.71c.345 0 .625-.28.625-.625V15.96h3.04a.625.625 0 00.378-1.122zM4.017 2.716V1.3h8.08v1.416h-8.08zm6.747 1.25v2.971L5.35 11.044V3.966h5.414zm14.27 8.87l-1.409-1.408a1.87 1.87 0 00-2.591-.056l-6.674 6.117-.73-.73a1.879 1.879 0 00-2.56-.085L5.016 21.98v-6.645a.625.625 0 00-.624-.624H2.584L20.05 1.46l9.562 7.254-4.58 4.122z"/><path d="M20.051 22.707a6.63 6.63 0 00-6.622 6.622 6.63 6.63 0 006.622 6.622 6.63 6.63 0 006.622-6.622 6.63 6.63 0 00-6.622-6.622zm0 11.994a5.379 5.379 0 01-5.372-5.372 5.379 5.379 0 015.372-5.373 5.379 5.379 0 015.373 5.373A5.379 5.379 0 0120.05 34.7z"/><path d="M21.217 28.704h-.541v-1.749h1.374a.625.625 0 000-1.25h-1.374v-.707a.625.625 0 00-1.25 0v.708h-.541a1.46 1.46 0 00-1.458 1.457v1.333a1.46 1.46 0 001.458 1.458h.541v1.749h-1.374a.625.625 0 000 1.25h1.374v.707a.625.625 0 001.25 0v-.708h.541a1.46 1.46 0 001.458-1.457v-1.333a1.46 1.46 0 00-1.458-1.458zm-1.79 0h-.542a.209.209 0 01-.208-.208v-1.333c0-.115.093-.208.208-.208h.541v1.75zm1.998 2.79a.208.208 0 01-.208.209h-.541v-1.75h.541c.115 0 .208.094.208.209v1.332z"/></g><defs><clipPath id="gclip0"><path d="M0 0h40v40H0z"/></clipPath></defs></symbol><symbol viewBox="0 0 16 13" id="mail" xmlns="http://www.w3.org/2000/svg"><path d="M1.536 3.875c.202.143.812.567 1.83 1.272 1.018.706 1.798 1.249 2.34 1.63.059.041.185.132.379.272a10.517 10.517 0 00.946.63c.182.106.353.187.514.24.16.054.31.08.446.08h.018a1.4 1.4 0 00.446-.08 2.74 2.74 0 00.514-.24 10.517 10.517 0 00.946-.63l.38-.272c.547-.381 1.94-1.349 4.178-2.902a4.26 4.26 0 001.09-1.098c.291-.429.437-.878.437-1.348 0-.393-.142-.73-.424-1.01A1.38 1.38 0 0014.57 0H1.43C.97 0 .618.155.37.464.123.774 0 1.161 0 1.624c0 .376.164.782.491 1.22.327.437.676.781 1.045 1.031z"/><path d="M15.107 4.83a185.599 185.599 0 00-4.446 3.08c-.34.25-.615.446-.826.586-.212.14-.493.282-.844.428a2.569 2.569 0 01-.982.219h-.018a2.57 2.57 0 01-.982-.219 5.098 5.098 0 01-.844-.428c-.211-.14-.486-.335-.826-.585-.803-.59-2.282-1.616-4.437-3.08A4.73 4.73 0 010 4.053v7.089c0 .393.14.729.42 1.009.28.28.616.42 1.009.42h13.143c.392 0 .729-.14 1.008-.42.28-.28.42-.616.42-1.01V4.055a4.922 4.922 0 01-.893.776z"/></symbol><symbol viewBox="0 0 16 23" id="map" xmlns="http://www.w3.org/2000/svg"><path d="M8 0C3.589 0 0 3.589 0 8c0 5.474 7.16 13.511 7.464 13.85a.72.72 0 001.072 0C8.841 21.512 16 13.475 16 8c0-4.411-3.589-8-8-8zm0 12.025A4.03 4.03 0 013.975 8 4.03 4.03 0 018 3.975 4.03 4.03 0 0112.025 8 4.03 4.03 0 018 12.025z"/></symbol><symbol viewBox="0 0 24 24" id="phone" xmlns="http://www.w3.org/2000/svg"><path d="M12 0C5.383 0 0 5.383 0 12s5.383 12 12 12c4.017 0 7.945-2.098 9.34-4.989.507-1.053.278-1.773-.005-2.191-.45-.669-1.375-1.024-2.552-1.056v-.627c0-.671-.546-1.217-1.218-1.217a7.363 7.363 0 01-2.315-.368c-.425-.147-.95-.009-1.193.244l-1.413 1.066c-1.62-.882-2.64-1.9-3.51-3.508l1.02-1.357c.326-.325.441-.798.302-1.243a7.386 7.386 0 01-.37-2.32A1.216 1.216 0 008.87 5.217H6.435c-.672 0-1.218.546-1.218 1.218 0 6.809 5.54 12.348 12.348 12.348a1.22 1.22 0 001.218-1.218v-.77c.803.025 1.436.237 1.687.608.189.279.165.667-.07 1.153-1.23 2.55-4.763 4.4-8.4 4.4-6.042 0-10.957-4.914-10.957-10.956S5.958 1.043 12 1.043c6.042 0 10.956 4.915 10.956 10.957A.522.522 0 0024 12c0-6.617-5.383-12-12-12z"/></symbol><symbol viewBox="0 0 14 14" id="plus" xmlns="http://www.w3.org/2000/svg"><g clip-path="url(#kclip0)"><path d="M13.24 6.024H7.977V.761C7.977.52 7.65 0 7 0s-.977.52-.977.76v5.263H.76C.52 6.023 0 6.349 0 7s.52.977.76.977h5.263v5.263c0 .24.326.76.977.76s.977-.52.977-.76V7.978h5.263c.24 0 .76-.326.76-.977s-.52-.977-.76-.977z"/></g><defs><clipPath id="kclip0"><path d="M0 0h14v14H0z"/></clipPath></defs></symbol><symbol viewBox="0 0 40 40" id="repair" xmlns="http://www.w3.org/2000/svg"><g clip-path="url(#lclip0)"><path d="M5.945 9.816c.078-.039.154-.08.228-.121.038.05.077.096.123.142l4.322 4.323c.27-.317.669-.517 1.1-.517.14 0 .28.02.413.06l.54.16.335-1.128L8.202 7.93a1.353 1.353 0 00-.247-.192l.011-.05c.012-.046.027-.08.04-.12.012-.029.023-.06.034-.092l.042-.1c.024-.058.05-.12.082-.185l.09-.183.103-.181c.043-.084.092-.156.148-.239l.09-.136.084-.11c.07-.093.135-.18.206-.256l.05-.055c.093-.102.187-.208.296-.298l.089-.08c.037-.034.074-.07.114-.1l.21-.154a2.151 2.151 0 01.31-.198 2 2 0 00.128-.072 1.62 1.62 0 01.283-.135c.05-.02.099-.04.149-.062l.087-.038c.032-.013.063-.028.094-.036l.232-.065c.046-.011.099-.027.153-.042.075-.022.148-.043.197-.05l.62-.09a.41.41 0 00.056-.8l-.611-.174a2.31 2.31 0 00-.328-.065c-.048-.007-.098-.014-.15-.023l-.268-.041a1.621 1.621 0 00-.232-.017l-.085-.003c-.07-.001-.12-.004-.173-.006a2.972 2.972 0 00-.519.01l-.118.01c-.18.015-.385.032-.59.081l-.331.067a4.529 4.529 0 00-.272.078l-.104.032a5.656 5.656 0 00-.684.253l-.03.013c-.188.077-.358.168-.523.256l-.137.073c-.01.004-.016.01-.026.015l-.16.097c-.142.086-.29.176-.427.278l-.229.163-.033.025-.226.18c-.06.047-.117.095-.17.142a2.036 2.036 0 00-1.113.572l-.485.483a3.39 3.39 0 00-.604.887C2.566 7.05 1.536 8.172 0 9.707l3.435 3.434c1.178-1.178 2.656-2.566 2.51-3.325zm26.935-.213l2.164.418 2.203-2.78a1.687 1.687 0 011.695-.589V5.455h-3.253v2.602h-3.504l.695 1.546z"/><path d="M13.242 10.305l.667-2.248h-2.916l2.249 2.248z"/><path d="M38.942 22.043v-8.336c-.059.08-.116.161-.179.24a7.26 7.26 0 01-3.453 2.404h.38v5.692h-8.715l4.083-5.569c.075-.094.143-.192.206-.293a6.177 6.177 0 006.345-2.149 6.159 6.159 0 001.208-5.068.532.532 0 00-.94-.225l-2.632 3.324-3.422-.663-1.43-3.18 2.634-3.324a.532.532 0 00-.432-.863 6.16 6.16 0 00-4.659 2.335 6.18 6.18 0 00-.642 6.665 4.13 4.13 0 00-.239.273l-5.285 6.287 1.28 1.28c.33.33.563.732.686 1.17h-.57a2.135 2.135 0 00-.5-.787l-7.275-7.276-.189.634.493.147c.371.11.677.357.861.697a1.44 1.44 0 01-.181 1.639c.038.34.009.684-.091 1.015l-.653 2.2 1.73 1.73H14.38l1.285-4.325a1.88 1.88 0 00-.002-1.086.77.77 0 00-.131-1.425l-1.142-.34L17.494 4.42l.097.03.804-1.557.316-2.428-1.34-.398-1.043 2.213-.168 1.745.1.03L13.155 14.5l-1.189-.353a.77.77 0 00-.905 1.088 1.88 1.88 0 00-.622.93l-1.743 5.877H7.065V16.35h2.16l.387-1.301c.097-.326.164-.416.358-.688L6.483 10.79c-.478.658-.95 1.34-1.686 2.07l-.983.983v8.2H2.756v11.386a6.506 6.506 0 006.506 6.505h24.233A6.505 6.505 0 0040 33.428V22.043h-1.058zm-25.535-4.044a.818.818 0 111.567.466l-1.062 3.578h-1.706l1.201-4.044zm-2.635-.782a.818.818 0 011.567.465l-1.295 4.36H9.34l1.433-4.825z"/><path d="M17.628 8.057l-1.259 4.236 4.059 4.058h2.175l3.62-4.304a7.338 7.338 0 01-.364-3.99h-8.231z"/></g><defs><clipPath id="lclip0"><path d="M0 0h40v40H0z"/></clipPath></defs></symbol><symbol viewBox="0 0 26 40" id="scroll-down" xmlns="http://www.w3.org/2000/svg"><path d="M13.019 33.605l-7.014-7.414 2.27-2.147 4.737 5.007 4.71-5.004 2.275 2.141-6.978 7.417zm12.95-2.98V9.375c0-5.17-4.206-9.375-9.375-9.375H9.406C4.236 0 .031 4.206.031 9.375v21.25C.031 35.795 4.237 40 9.406 40h7.188c5.17 0 9.375-4.206 9.375-9.375zm-9.375-27.5a6.257 6.257 0 016.25 6.25v21.25a6.257 6.257 0 01-6.25 6.25H9.406a6.257 6.257 0 01-6.25-6.25V9.375a6.257 6.257 0 016.25-6.25h7.188zM13 6.328a1.562 1.562 0 100 3.125 1.562 1.562 0 000-3.125zm0 6.25a1.562 1.562 0 100 3.125 1.562 1.562 0 000-3.125zm0 6.25a1.562 1.562 0 100 3.125 1.562 1.562 0 000-3.125z"/></symbol><symbol viewBox="0 0 16 16" id="tel" xmlns="http://www.w3.org/2000/svg"><path d="M15.992 12.619a.773.773 0 01-.237.677l-2.253 2.236a1.268 1.268 0 01-.398.288 1.59 1.59 0 01-.482.152 2.313 2.313 0 01-.322.017c-.215 0-.562-.036-1.042-.11-.48-.073-1.067-.254-1.761-.542-.695-.287-1.482-.72-2.363-1.295-.881-.576-1.818-1.367-2.812-2.372-.79-.779-1.445-1.524-1.965-2.235A15.93 15.93 0 011.104 7.46a10.628 10.628 0 01-.712-1.643 8.717 8.717 0 01-.321-1.27 4.195 4.195 0 01-.068-.839c.011-.203.017-.316.017-.338.022-.158.073-.32.152-.483A1.27 1.27 0 01.46 2.49L2.713.237A.746.746 0 013.255 0a.63.63 0 01.39.127c.112.085.208.19.287.313l1.813 3.44c.101.18.13.378.085.593a1.056 1.056 0 01-.288.542l-.83.83a.282.282 0 00-.06.11.418.418 0 00-.025.127c.045.237.147.508.305.813.135.27.344.601.627.99.282.39.683.84 1.202 1.347.508.52.96.923 1.355 1.211.395.288.726.5.991.636.265.135.469.217.61.245l.211.042c.023 0 .06-.008.11-.025a.283.283 0 00.11-.06l.966-.982c.204-.18.44-.27.712-.27.192 0 .344.033.457.1h.017l3.269 1.932c.237.147.378.333.423.559z"/></symbol></svg>