<svg width="168" height="273" viewBox="0 0 168 273" fill="none" xmlns="http://www.w3.org/2000/svg">
<path fill-rule="evenodd" clip-rule="evenodd" d="M0 -17H168V174H0V-17Z" fill="#4AF6CD"/>
<path d="M60.22 138.36C60.22 135.2 60.68 132.42 61.6 130.02C62.52 127.58 63.9 125.4 65.74 123.48L71.62 128.46C69.34 131.34 68.2 134.36 68.2 137.52C68.2 139.16 68.52 140.42 69.16 141.3C69.76 142.14 70.62 142.56 71.74 142.56C72.54 142.56 73.2 142.34 73.72 141.9C74.24 141.46 74.74 140.72 75.22 139.68C75.7 138.64 76.3 137 77.02 134.76C78.38 130.48 80.1 127.36 82.18 125.4C84.22 123.4 87.06 122.4 90.7 122.4C93.34 122.4 95.68 123.08 97.72 124.44C99.72 125.8 101.28 127.78 102.4 130.38C103.52 132.94 104.08 135.96 104.08 139.44C104.08 146.08 102.06 151.5 98.02 155.7L91.96 150.24C94.68 146.92 96.04 143.46 96.04 139.86C96.04 137.98 95.64 136.52 94.84 135.48C94 134.44 92.9 133.92 91.54 133.92C90.58 133.92 89.8 134.12 89.2 134.52C88.56 134.92 88 135.64 87.52 136.68C87 137.68 86.44 139.16 85.84 141.12C84.36 145.84 82.58 149.16 80.5 151.08C78.42 153 75.8 153.96 72.64 153.96C70.16 153.96 67.98 153.3 66.1 151.98C64.22 150.62 62.78 148.76 61.78 146.4C60.74 144 60.22 141.32 60.22 138.36ZM89.02 84.9553C91.9 84.9553 94.48 85.5953 96.76 86.8753C99.04 88.1153 100.84 89.9953 102.16 92.5153C103.44 95.0353 104.08 98.1153 104.08 101.755C104.08 107.275 102.74 111.455 100.06 114.295C97.34 117.135 93.66 118.555 89.02 118.555H61.3V107.455H88.66C91.18 107.455 93.04 107.015 94.24 106.135C95.4 105.215 95.98 103.755 95.98 101.755C95.98 99.7553 95.38 98.3153 94.18 97.4353C92.98 96.5553 91.14 96.1153 88.66 96.1153H61.3V84.9553H89.02ZM87.64 64.9477V68.0077H103V79.1077H61.3V64.6477C61.3 58.7677 62.36 54.3877 64.48 51.5077C66.6 48.5877 69.86 47.1277 74.26 47.1277C76.9 47.1277 79.1 47.7477 80.86 48.9877C82.62 50.1877 84.2 52.1277 85.6 54.8077L103 44.4277V56.7877L87.64 64.9477ZM80.08 68.0077V64.2877C80.08 60.4477 78.14 58.5277 74.26 58.5277C72.46 58.5277 71.14 59.0677 70.3 60.1477C69.46 61.1877 69.04 62.7677 69.04 64.8877V68.0077H80.08ZM103 41.9006H61.3V16.2806L69.16 17.4206V30.8006H79.18V19.0406H87.04V30.8006H103V41.9006Z" fill="white"/>
<path d="M60.22 250.92C60.22 245.36 61.98 240.58 65.5 236.58L71.2 242.04C70.12 243.56 69.34 244.94 68.86 246.18C68.34 247.38 68.08 248.76 68.08 250.32C68.08 253.32 69.24 255.68 71.56 257.4C73.88 259.08 77.42 259.92 82.18 259.92C85.66 259.92 88.42 259.64 90.46 259.08C92.46 258.52 93.9 257.68 94.78 256.56C95.66 255.4 96.1 253.92 96.1 252.12C96.1 250.32 95.72 248.68 94.96 247.2H86.38V251.94L78.76 253.02V236.46H99.52C100.96 238.62 102.08 241.06 102.88 243.78C103.68 246.5 104.08 249.18 104.08 251.82C104.08 264.86 96.76 271.38 82.12 271.38C77.56 271.38 73.64 270.5 70.36 268.74C67.04 266.94 64.52 264.5 62.8 261.42C61.08 258.34 60.22 254.84 60.22 250.92ZM60.22 213.335C60.22 207.295 62.14 202.595 65.98 199.235C69.82 195.875 75.2 194.195 82.12 194.195C86.64 194.195 90.56 194.955 93.88 196.475C97.16 197.955 99.68 200.135 101.44 203.015C103.2 205.895 104.08 209.335 104.08 213.335C104.08 219.375 102.16 224.075 98.32 227.435C94.48 230.755 89.08 232.415 82.12 232.415C77.6 232.415 73.7 231.675 70.42 230.195C67.14 228.675 64.62 226.495 62.86 223.655C61.1 220.775 60.22 217.335 60.22 213.335ZM68.2 213.335C68.2 215.935 69.28 217.855 71.44 219.095C73.6 220.295 77.16 220.895 82.12 220.895C87.08 220.895 90.66 220.275 92.86 219.035C95.02 217.795 96.1 215.895 96.1 213.335C96.1 210.695 95.02 208.775 92.86 207.575C90.7 206.375 87.12 205.775 82.12 205.775C77.16 205.775 73.6 206.375 71.44 207.575C69.28 208.775 68.2 210.695 68.2 213.335Z" fill="white"/>
<rect x="83" y="184" width="20" height="1" transform="rotate(-90 83 184)" fill="white"/>
</svg>
