<?xml version="1.0" encoding="utf-8"?>
<!-- Generator: Adobe Illustrator 16.0.0, SVG Export Plug-In . SVG Version: 6.00 Build 0)  -->
<!DOCTYPE svg PUBLIC "-//W3C//DTD SVG 1.1//EN" "http://www.w3.org/Graphics/SVG/1.1/DTD/svg11.dtd">
<svg version="1.1" id="Layer_1" xmlns="http://www.w3.org/2000/svg" xmlns:xlink="http://www.w3.org/1999/xlink" x="0px" y="0px"
	 width="850.39px" height="820.711px" viewBox="0 15 850.39 820.711" enable-background="new 0 15 850.39 820.711"
	 xml:space="preserve">
<g id="Layer_2" display="none">
	<path display="inline" d="M731.83,53.369h-6.338v191.749c0,10.435-10.746,19.005-23.416,19.005
		c-12.672,0-23.418-8.57-23.418-19.005V53.369h-37.955v191.749c0,10.435-10.123,19.005-22.791,19.005
		c-13.295,0-23.418-8.57-23.418-19.005V53.369h-6.338c-16.459,0-29.752,13.293-29.752,29.726V290.37
		c0,16.459,13.293,29.752,29.752,29.752h39.879v76.897c-11.371,9.479-18.326,23.105-18.326,38.608v321.506
		c0,27.828,22.113,50.626,50,50.626c27.832,0,50.627-22.798,50.627-50.626V435.63c0-15.503-6.959-29.132-18.385-38.608v-76.897
		h39.879c16.457,0,29.752-13.293,29.752-29.752V83.094C761.582,66.662,748.287,53.369,731.83,53.369z"/>
	<path display="inline" d="M181.857,43.554c-51.244,0-93.048,62.022-93.048,138.271c0,59.815,25.342,110.439,61.431,129.759v85.438
		c-11.425,9.479-18.383,23.105-18.383,38.608v321.506c0,27.828,22.174,50.626,50,50.626c27.832,0,50.628-22.798,50.628-50.626
		V435.63c0-15.503-7.584-29.132-18.326-38.608v-85.438c35.406-19.316,60.748-69.94,60.748-129.761
		C274.906,105.576,233.726,43.554,181.857,43.554z"/>
	<path display="inline" d="M472.371,397.021v-83.546V278.04V50.511c-8.881-4.438-18.383-6.957-28.508-6.957
		c-51.247,0-93.046,62.022-93.046,138.271c0,57.92,24.096,107.271,57.638,127.837v87.358c-10.803,9.479-18.383,23.105-18.383,38.608
		v321.506c0,27.828,22.796,50.626,50.625,50.626c27.887,0,50.627-22.798,50.627-50.626V435.63
		C491.32,420.127,483.738,406.498,472.371,397.021z"/>
	<path display="inline" d="M41.442,333.737C40.514,495.145,170.007,624.597,331.41,623.69
		c161.398-0.933,292.05-131.59,292.972-292.981c0.924-161.409-128.568-290.922-289.972-289.97
		C173.007,41.636,42.365,172.299,41.442,333.737z M162.131,332.204c0-96.853,76.89-174.779,172.783-174.779
		c95.888,0,173.277,77.929,173.277,174.779c0,96.852-77.389,174.77-173.277,174.77C239.021,506.974,162.131,429.055,162.131,332.204
		z M484.656,612.17l174.785,174.771c73.885,74.107,206.129-47.697,126.703-126.679L610.861,486.469
		C580.009,538.368,536.896,581.824,484.656,612.17z"/>
	<g display="inline">
		<path d="M666.789,809.913H183.602c-134.957,0-170.621-127.75-170.621-195.3v-19.629h824.427v19.629
			C837.408,682.163,801.746,809.913,666.789,809.913z M53.61,634.241c4.898,42.097,27.344,136.414,129.992,136.414h483.185
			c103.109,0,125.297-94.348,130.061-136.414H53.61z"/>
	</g>
	<g display="inline">
		<path d="M474.412,614.286h-39.258V456.348L14.851,457.46L425.195,52.454V45.89h49.216V614.286L474.412,614.286z M435.154,97.788
			L110.771,417.953l324.383-0.863V97.788L435.154,97.788z"/>
	</g>
	<path display="inline" d="M276.127,648.787L37.631,738.222V201.659l238.496-89.491V648.787z"/>
	<path display="inline" d="M812.759,648.787l-238.498,89.436V201.659l238.498-89.491V648.787z"/>
	<path display="inline" d="M305.937,648.787l238.51,89.436V201.659l-238.51-89.491V648.787z"/>
</g>
<path d="M425.05,15L0.672,331.812v503.899h848.652V331.812L425.05,15z M307.647,241.092c12.48-22.762,29.619-39.889,51.383-51.276
	c21.722-11.49,46.526-17.237,74.536-17.237c23.652,0,44.754,4.641,63.219,13.807c18.447,9.286,32.486,22.323,42.25,39.346
	c9.68,17.016,14.604,35.575,14.604,55.689c0,23.976-7.408,45.632-22.162,65.083c-18.563,24.424-42.268,36.688-71.273,36.688
	c-7.789,0-13.641-1.326-17.619-4.094c-3.928-2.764-6.629-6.738-7.906-12.042c-11.043,10.72-23.914,16.136-38.384,16.136
	c-15.647,0-28.567-5.416-38.844-16.136c-10.277-10.828-15.474-25.194-15.474-42.984c0-22.207,6.184-42.32,18.623-60.549
	c15.075-22.211,34.312-33.379,57.84-33.379c16.754,0,29.118,6.406,37.075,19.231l3.598-15.692h37.293L475.07,334.9
	c-1.311,6.41-1.973,10.5-1.973,12.374c0,2.438,0.498,4.095,1.592,5.305c1.045,1.214,2.369,1.766,3.861,1.766
	c4.592,0,10.395-2.648,17.521-8.18c9.613-7.069,17.354-16.795,23.254-28.726c5.969-12.042,8.951-24.536,8.951-37.46
	c0-23.094-8.338-42.433-25.078-58.125c-16.809-15.469-40.229-23.313-70.23-23.313c-25.52,0-47.119,5.191-64.853,15.692
	c-17.679,10.276-30.996,24.976-40.112,43.867c-8.951,18.78-13.426,38.455-13.426,58.896c0,19.782,5.081,37.903,15.025,54.144
	c10.11,16.355,24.143,28.178,42.209,35.695c18.125,7.409,38.854,11.159,62.153,11.159c22.443,0,41.771-3.096,58.016-9.395
	c16.193-6.294,29.238-15.581,39.115-28.174h30.002c-9.381,19.111-23.818,34.029-43.262,44.969
	c-22.326,12.377-49.561,18.577-81.551,18.577c-31.107,0-57.901-5.205-80.436-15.697c-22.658-10.5-39.399-25.969-50.446-46.415
	c-10.999-20.444-16.468-42.764-16.468-66.855C288.917,288.605,295.099,263.961,307.647,241.092z M30.619,341.869l313.112,209.954
	L30.619,794.156V341.869z M54.375,810.282L425.05,523.413l370.571,286.869H54.375L54.375,810.282z M819.388,794.156L506.281,551.823
	l313.107-209.963V794.156L819.388,794.156z M440.361,264.181c4.973,5.636,7.459,13.807,7.459,24.416
	c0,9.506-1.873,19.783-5.471,30.722c-3.596,11.053-7.904,19.451-12.875,25.199c-3.479,3.979-7.076,6.958-10.657,8.843
	c-4.708,2.648-9.681,3.979-15.034,3.979c-7.177,0-13.146-2.875-18.067-8.511c-4.807-5.637-7.177-14.358-7.177-26.302
	c0-8.95,1.707-19.228,5.188-30.83c3.481-11.603,8.678-20.445,15.531-26.739c6.896-6.3,14.363-9.387,22.427-9.387
	C429.203,255.57,435.439,258.437,440.361,264.181z"/>
</svg>
