<svg width="25" height="52" viewBox="0 0 25 42" fill="none" xmlns="http://www.w3.org/2000/svg">
<g filter="url(#filter0_d)">
<path fill-rule="evenodd" clip-rule="evenodd" d="M5 20.5832C5 7.50243 10.4217 0.445137 12.6388 0.44458C14.8563 0.445137 20.2777 7.50198 20.2777 20.5832C20.2777 33.8001 15.5346 42.7602 15.3333 43.1352L15.1371 43.4998H10.1406L9.94444 43.1352C9.74311 42.7601 5 33.8001 5 20.5832ZM11.9447 2.28839V2.28831L11.9448 2.28827L11.9447 2.28839ZM11.9447 2.28839V24.0559H13.3336V2.28831C15.1113 3.87511 18.8891 9.64787 18.8891 20.5834C18.8891 24.2327 18.5054 27.5625 17.9585 30.4705C17.1547 29.3264 15.6773 27.7692 12.9848 26.2309C6.43809 22.4896 6.51764 17.3523 6.52298 17.1354H6.52124C7.20353 8.41873 10.3648 3.70008 11.9447 2.28839ZM6.5248 24.2244C6.46577 23.4015 6.43105 22.5578 6.41195 21.6984C7.40505 23.5438 9.16716 25.6496 12.2953 27.4376C16.7407 29.9786 17.5018 32.492 17.5209 32.5553L17.5211 32.5559C17.1808 34.042 16.8076 35.3909 16.4343 36.5784C15.8492 35.542 14.818 34.2677 12.9968 33.1826C7.51236 29.917 6.64613 25.1791 6.5248 24.2244ZM13.3335 42.1114H14.2936L14.2934 42.1111C14.5694 41.5416 15.1284 40.3229 15.7639 38.5694C15.6284 37.9913 14.9792 35.9792 12.2847 34.375C9.83516 32.9151 8.22404 31.1772 7.15982 29.5488C8.29698 36.2105 10.3595 40.8232 10.9845 42.1114H11.9446V37.2501H13.3335V42.1114Z" fill="white"/>
<path d="M12.6388 0.44458L12.6389 0.31958L12.6388 0.31958L12.6388 0.44458ZM15.3333 43.1352L15.4433 43.1945L15.4434 43.1944L15.3333 43.1352ZM15.1371 43.4998V43.6248H15.2118L15.2471 43.5591L15.1371 43.4998ZM10.1406 43.4998L10.0306 43.5591L10.0659 43.6248H10.1406V43.4998ZM9.94444 43.1352L9.83431 43.1944L9.83437 43.1945L9.94444 43.1352ZM11.9447 2.28831L11.9044 2.16998L11.8197 2.19881V2.28831H11.9447ZM11.9448 2.28827L12.0281 2.38149L11.9045 2.16993L11.9448 2.28827ZM11.9447 24.0559H11.8197V24.1809H11.9447V24.0559ZM13.3336 24.0559V24.1809H13.4586V24.0559H13.3336ZM13.3336 2.28831L13.4168 2.19506L13.2086 2.00919V2.28831H13.3336ZM17.9585 30.4705L17.8563 30.5424L18.0266 30.7849L18.0814 30.4936L17.9585 30.4705ZM12.9848 26.2309L12.9227 26.3395L12.9227 26.3395L12.9848 26.2309ZM6.52298 17.1354L6.64794 17.1385L6.65109 17.0104H6.52298V17.1354ZM6.52124 17.1354L6.39662 17.1256L6.38608 17.2604H6.52124V17.1354ZM6.41195 21.6984L6.52203 21.6392L6.28698 21.7012L6.41195 21.6984ZM6.5248 24.2244L6.39993 24.2334L6.4008 24.2402L6.5248 24.2244ZM12.2953 27.4376L12.2333 27.5462L12.2333 27.5462L12.2953 27.4376ZM17.5209 32.5553L17.4013 32.5915L17.4013 32.5916L17.5209 32.5553ZM17.5211 32.5559L17.643 32.5838L17.6504 32.5513L17.6407 32.5195L17.5211 32.5559ZM16.4343 36.5784L16.3255 36.6399L16.4671 36.8909L16.5536 36.6159L16.4343 36.5784ZM12.9968 33.1826L13.0608 33.0752L13.0608 33.0752L12.9968 33.1826ZM14.2936 42.1114V42.2364H14.5094L14.402 42.0492L14.2936 42.1114ZM13.3335 42.1114H13.2085V42.2364H13.3335V42.1114ZM14.2934 42.1111L14.1809 42.0566L14.1521 42.116L14.185 42.1733L14.2934 42.1111ZM15.7639 38.5694L15.8814 38.612L15.894 38.5771L15.8856 38.5409L15.7639 38.5694ZM12.2847 34.375L12.2207 34.4824L12.2208 34.4824L12.2847 34.375ZM7.15982 29.5488L7.26446 29.4804L7.0366 29.5698L7.15982 29.5488ZM10.9845 42.1114L10.872 42.166L10.9062 42.2364H10.9845V42.1114ZM11.9446 42.1114V42.2364H12.0696V42.1114H11.9446ZM11.9446 37.2501V37.1251H11.8196V37.2501H11.9446ZM13.3335 37.2501H13.4585V37.1251H13.3335V37.2501ZM12.6388 0.31958C12.3302 0.319658 11.9803 0.441678 11.6092 0.666672C11.2368 0.892539 10.8346 1.22731 10.4191 1.66605C9.58816 2.54364 8.69578 3.8462 7.8753 5.5547C6.23389 8.97261 4.875 14.0259 4.875 20.5832H5.125C5.125 14.0598 6.47694 9.04401 8.10066 5.66293C8.91274 3.97194 9.79149 2.69251 10.6007 1.83794C11.0053 1.41058 11.3904 1.09172 11.7389 0.880438C12.0887 0.668284 12.3932 0.569642 12.6389 0.56958L12.6388 0.31958ZM20.4027 20.5832C20.4027 14.0256 19.0439 8.97238 17.4025 5.55454C16.582 3.84606 15.6897 2.54355 14.8587 1.66598C14.4433 1.22726 14.041 0.892507 13.6686 0.666651C13.2975 0.441667 12.9475 0.319658 12.6389 0.31958L12.6388 0.56958C12.8846 0.569642 13.1891 0.668281 13.5389 0.880423C13.8874 1.09169 14.2725 1.41054 14.6772 1.83788C15.4863 2.69242 16.3651 3.9718 17.1772 5.66276C18.8008 9.04379 20.1527 14.0596 20.1527 20.5832H20.4027ZM15.4434 43.1944C15.6499 42.8099 20.4027 33.8288 20.4027 20.5832H20.1527C20.1527 33.7715 15.4194 42.7106 15.2231 43.0761L15.4434 43.1944ZM15.2471 43.5591L15.4433 43.1945L15.2232 43.076L15.027 43.4406L15.2471 43.5591ZM10.1406 43.6248H15.1371V43.3748H10.1406V43.6248ZM9.83437 43.1945L10.0306 43.5591L10.2507 43.4406L10.0545 43.076L9.83437 43.1945ZM4.875 20.5832C4.875 33.8288 9.62787 42.8097 9.83431 43.1944L10.0546 43.0761C9.85835 42.7105 5.125 33.7715 5.125 20.5832H4.875ZM11.8197 2.28831V2.28839H12.0697V2.28831H11.8197ZM11.9045 2.16993L11.9044 2.16998L11.9849 2.40665L11.9851 2.4066L11.9045 2.16993ZM12.0279 2.38161L12.0281 2.38149L11.8615 2.19504L11.8614 2.19516L12.0279 2.38161ZM12.0697 24.0559V2.28839H11.8197V24.0559H12.0697ZM13.3336 23.9309H11.9447V24.1809H13.3336V23.9309ZM13.2086 2.28831V24.0559H13.4586V2.28831H13.2086ZM19.0141 20.5834C19.0141 9.62212 15.2277 3.81143 13.4168 2.19506L13.2503 2.38157C14.995 3.93879 18.7641 9.67362 18.7641 20.5834H19.0141ZM18.0814 30.4936C18.6295 27.5791 19.0141 24.2415 19.0141 20.5834H18.7641C18.7641 24.224 18.3813 27.546 17.8357 30.4474L18.0814 30.4936ZM12.9227 26.3395C15.6003 27.8692 17.0636 29.4143 17.8563 30.5424L18.0608 30.3987C17.2458 29.2386 15.7542 27.6692 13.0468 26.1224L12.9227 26.3395ZM6.39802 17.1323C6.39202 17.3759 6.32188 22.5672 12.9227 26.3395L13.0468 26.1224C6.5543 22.412 6.64326 17.3286 6.64794 17.1385L6.39802 17.1323ZM6.52124 17.2604H6.52298V17.0104H6.52124V17.2604ZM11.8614 2.19518C10.2517 3.63356 7.08074 8.38565 6.39662 17.1256L6.64586 17.1451C7.32633 8.45181 10.4779 3.76661 12.028 2.3816L11.8614 2.19518ZM6.28698 21.7012C6.30611 22.5621 6.34091 23.4079 6.40012 24.2333L6.64948 24.2155C6.59064 23.3951 6.55599 22.5535 6.53692 21.6956L6.28698 21.7012ZM12.3574 27.3291C9.24952 25.5527 7.50405 23.464 6.52203 21.6392L6.30188 21.7577C7.30606 23.6236 9.08481 25.7465 12.2333 27.5462L12.3574 27.3291ZM17.6406 32.519C17.6125 32.4265 16.8316 29.8866 12.3574 27.3291L12.2333 27.5462C16.6498 30.0706 17.391 32.5575 17.4013 32.5915L17.6406 32.519ZM17.6407 32.5195L17.6405 32.5189L17.4013 32.5916L17.4015 32.5922L17.6407 32.5195ZM16.5536 36.6159C16.9278 35.4254 17.3019 34.0732 17.643 32.5838L17.3993 32.528C17.0597 34.0108 16.6873 35.3565 16.3151 36.541L16.5536 36.6159ZM12.9328 33.29C14.7338 34.363 15.7502 35.6208 16.3255 36.6399L16.5432 36.517C15.9483 35.4632 14.9022 34.1723 13.0608 33.0752L12.9328 33.29ZM6.4008 24.2402C6.52473 25.2153 7.40259 29.9971 12.9328 33.29L13.0608 33.0752C7.62212 29.8369 6.76753 25.1428 6.6488 24.2086L6.4008 24.2402ZM14.2936 41.9864H13.3335V42.2364H14.2936V41.9864ZM14.185 42.1733L14.1851 42.1737L14.402 42.0492L14.4018 42.0489L14.185 42.1733ZM15.6463 38.5268C15.0126 40.2757 14.4553 41.4905 14.1809 42.0566L14.4059 42.1656C14.6835 41.5928 15.2443 40.3701 15.8814 38.612L15.6463 38.5268ZM12.2208 34.4824C14.8794 36.0653 15.5125 38.0445 15.6422 38.5979L15.8856 38.5409C15.7444 37.9381 15.0789 35.8931 12.3487 34.2676L12.2208 34.4824ZM7.05518 29.6171C8.12907 31.2604 9.7537 33.012 12.2207 34.4824L12.3487 34.2676C9.91661 32.8181 8.31902 31.0941 7.26446 29.4804L7.05518 29.6171ZM11.097 42.0569C10.4756 40.7761 8.41769 36.1748 7.28304 29.5277L7.0366 29.5698C8.17627 36.2463 10.2435 40.8704 10.872 42.166L11.097 42.0569ZM11.9446 41.9864H10.9845V42.2364H11.9446V41.9864ZM11.8196 37.2501V42.1114H12.0696V37.2501H11.8196ZM13.3335 37.1251H11.9446V37.3751H13.3335V37.1251ZM13.4585 42.1114V37.2501H13.2085V42.1114H13.4585Z" fill="black"/>
</g>
<defs>
<filter id="filter0_d" x="0.875" y="0.31958" width="23.5277" height="51.3052" filterUnits="userSpaceOnUse" color-interpolation-filters="sRGB">
<feFlood flood-opacity="0" result="BackgroundImageFix"/>
<feColorMatrix in="SourceAlpha" type="matrix" values="0 0 0 0 0 0 0 0 0 0 0 0 0 0 0 0 0 0 127 0"/>
<feOffset dy="4"/>
<feGaussianBlur stdDeviation="2"/>
<feColorMatrix type="matrix" values="0 0 0 0 0 0 0 0 0 0 0 0 0 0 0 0 0 0 0.25 0"/>
<feBlend mode="normal" in2="BackgroundImageFix" result="effect1_dropShadow"/>
<feBlend mode="normal" in="SourceGraphic" in2="effect1_dropShadow" result="shape"/>
</filter>
</defs>
</svg>
