<svg width="1000" height="489" viewBox="0 0 1000 489" fill="none" xmlns="http://www.w3.org/2000/svg">
<g opacity="0.29827">
<path d="M1008.08 156.448L443.182 -363.858V-754.19L28.1096 -777C24.9043 -769.456 4.36709 -747.714 7.57176 -735.596C11.43 -721.102 30.8387 -725.735 36.4776 -716.409C43.0661 -705.42 31.7291 -660.749 28.3457 -647.86C21.8759 -623.445 7.09676 -603.665 2.82235 -579.25C-4.35982 -538.263 10.1824 -541.53 37.7242 -515.927C84.141 -472.742 46.9244 -427.952 58.6176 -377.223C68.1146 -335.878 109.605 -314.554 124.8 -273.211C136.553 -241.37 152.697 -233.233 177.746 -209.947C177.153 -224.084 164.51 -265.785 188.253 -262.102C211.817 -258.478 202.736 -223.669 207.247 -209.115C211.045 -196.997 237.933 -172.761 215.616 -161.593C208.196 -157.91 187.066 -172.582 178.577 -176.503C184.572 -157.791 180.774 -138.367 190.271 -120.487C201.608 -99.162 213.835 -107.359 228.853 -95.7754C244.344 -83.8355 242.683 -70.1137 235.797 -52.0554C228.615 -33.2247 221.196 -36.1352 232.592 -13.4434C240.843 2.95119 254.85 23.7421 266.9 36.2164C273.904 43.4634 281.502 45.1267 288.506 54.3932C294.323 62.1155 292.067 72.2142 299.012 79.1638C310.883 91.1037 331.006 91.282 340.384 106.904C350.831 124.309 338.96 137.437 369.706 135.833C371.309 170.643 377.897 202.185 377.541 236.994C394.695 243.825 422.414 235.687 440.399 232.063C458.266 256.18 481.355 239.429 501.774 252.558C510.678 258.26 508.837 272.517 514.239 277.506C525.339 287.723 533.529 281.308 547.301 284.872C557.51 287.486 565.404 294.97 575.138 297.703C584.338 300.257 599.475 294.258 606.301 302.396C614.492 312.138 600.78 329.958 613.127 337.799C623.395 344.333 638.115 328.77 648.088 331.027C659.721 333.7 693.079 364.174 701.271 374.212C710.59 385.677 719.969 407.062 725.25 421.793C733.501 444.841 732.373 456.127 749.408 472.998C760.27 483.75 749.942 484.522 767.63 487.67C779.204 489.749 794.518 481.374 806.212 480.067C830.549 477.394 855.122 482.027 879.102 477.453C901.421 473.176 922.729 466.166 945.64 462.899C965.465 460.048 1000.37 462.246 1017.94 452.801C1036.99 442.643 1038.71 419.654 1011.17 423.932C1008.97 409.26 1018.77 389.003 1007.85 378.847C1023.04 358.056 1028.56 343.384 1030.93 317.959C1032 306.792 1032.48 294.436 1038 285.05C1043.4 275.783 1058.59 270.259 1061.56 262.299C1066.13 249.943 1058.83 244.419 1053.25 237.528C1049.69 233.073 1039.54 235.212 1036.63 231.291C1031.23 224.103 1036.57 216.678 1033.6 209.431C1024.94 188.462 1014.61 180.205 1008.08 156.444C1008.26 160.424 1008.44 164.463 1008.2 168.384" stroke="white" stroke-width="2" stroke-linecap="round" stroke-linejoin="round"/>
</g>
<path d="M729.114 76.9394C720.546 100.321 740.614 108.526 756.675 123.807C761.434 128.336 761.888 135.817 756.879 140.342C746.107 150.074 705.264 135.917 707.854 148.745C710.53 161.994 745.061 180.531 746.618 181.799C760.284 192.932 764.735 221.174 757.208 236.658C751.852 247.676 716.342 243.962 705.172 240.293C632.024 216.266 664.985 219.131 582.817 211.67C576.527 211.099 569.935 210.806 563.894 212.65C557.671 214.549 557.869 222.339 559.957 226.55C566.876 240.506 597.849 264.178 589.514 282.523C586.956 288.152 580.963 291.707 578.264 297.27C576.151 301.627 576.385 306.772 575.445 311.523" stroke="white" stroke-width="2"/>
<path fill-rule="evenodd" clip-rule="evenodd" d="M573.5 319C577.09 319 580 316.09 580 312.5C580 308.91 577.09 306 573.5 306C569.91 306 567 308.91 567 312.5C567 316.09 569.91 319 573.5 319Z" fill="#4AF6CD"/>
<path fill-rule="evenodd" clip-rule="evenodd" d="M661 356C662.657 356 664 354.657 664 353C664 351.343 662.657 350 661 350C659.343 350 658 351.343 658 353C658 354.657 659.343 356 661 356Z" fill="#4AF6CD"/>
<path fill-rule="evenodd" clip-rule="evenodd" d="M725 464C726.657 464 728 462.657 728 461C728 459.343 726.657 458 725 458C723.343 458 722 459.343 722 461C722 462.657 723.343 464 725 464Z" fill="#4AF6CD"/>
<path fill-rule="evenodd" clip-rule="evenodd" d="M365 221C366.657 221 368 219.657 368 218C368 216.343 366.657 215 365 215C363.343 215 362 216.343 362 218C362 219.657 363.343 221 365 221Z" fill="#4AF6CD"/>
<path fill-rule="evenodd" clip-rule="evenodd" d="M729.5 84C733.09 84 736 81.0899 736 77.5C736 73.9101 733.09 71 729.5 71C725.91 71 723 73.9101 723 77.5C723 81.0899 725.91 84 729.5 84Z" fill="#4AF6CD"/>
<path d="M398.41 303.976L396.17 315H394.218L392.186 305.768L390.138 315H388.234L385.994 303.976H387.482L389.258 313.672L391.386 303.976H393.002L395.178 313.672L397.018 303.976H398.41ZM406.544 310.536C406.544 310.781 406.534 311.032 406.512 311.288H401.136C401.2 312.216 401.435 312.899 401.84 313.336C402.246 313.773 402.768 313.992 403.408 313.992C403.814 313.992 404.187 313.933 404.528 313.816C404.87 313.699 405.227 313.512 405.6 313.256L406.24 314.136C405.344 314.84 404.363 315.192 403.296 315.192C402.123 315.192 401.206 314.808 400.544 314.04C399.894 313.272 399.568 312.216 399.568 310.872C399.568 309.997 399.707 309.224 399.984 308.552C400.272 307.869 400.678 307.336 401.2 306.952C401.734 306.568 402.358 306.376 403.072 306.376C404.192 306.376 405.051 306.744 405.648 307.48C406.246 308.216 406.544 309.235 406.544 310.536ZM405.088 310.104C405.088 309.272 404.923 308.637 404.592 308.2C404.262 307.763 403.766 307.544 403.104 307.544C401.899 307.544 401.243 308.429 401.136 310.2H405.088V310.104ZM411.183 306.376C411.759 306.376 412.276 306.456 412.735 306.616C413.194 306.776 413.631 307.016 414.047 307.336L413.423 308.264C413.039 308.019 412.671 307.837 412.319 307.72C411.978 307.603 411.615 307.544 411.231 307.544C410.751 307.544 410.372 307.645 410.095 307.848C409.818 308.04 409.679 308.307 409.679 308.648C409.679 308.989 409.807 309.256 410.063 309.448C410.33 309.64 410.804 309.827 411.487 310.008C412.426 310.243 413.124 310.563 413.583 310.968C414.052 311.373 414.287 311.928 414.287 312.632C414.287 313.464 413.962 314.099 413.311 314.536C412.671 314.973 411.887 315.192 410.959 315.192C409.679 315.192 408.618 314.824 407.775 314.088L408.559 313.192C409.274 313.736 410.063 314.008 410.927 314.008C411.482 314.008 411.919 313.896 412.239 313.672C412.57 313.437 412.735 313.123 412.735 312.728C412.735 312.44 412.676 312.211 412.559 312.04C412.442 311.859 412.239 311.704 411.951 311.576C411.663 311.437 411.242 311.293 410.687 311.144C409.791 310.909 409.14 310.595 408.735 310.2C408.34 309.805 408.143 309.304 408.143 308.696C408.143 308.259 408.271 307.864 408.527 307.512C408.794 307.149 409.156 306.872 409.615 306.68C410.084 306.477 410.607 306.376 411.183 306.376ZM420.62 314.616C420.065 315 419.436 315.192 418.732 315.192C418.017 315.192 417.457 314.989 417.052 314.584C416.657 314.168 416.46 313.571 416.46 312.792V307.704H414.988V306.568H416.46V304.664L417.932 304.488V306.568H419.932L419.772 307.704H417.932V312.728C417.932 313.165 418.006 313.485 418.156 313.688C418.316 313.88 418.577 313.976 418.94 313.976C419.27 313.976 419.644 313.864 420.06 313.64L420.62 314.616ZM429.179 303.784C429.915 303.784 430.545 303.891 431.067 304.104C431.59 304.307 432.097 304.627 432.587 305.064L431.755 305.992C431.339 305.661 430.929 305.421 430.523 305.272C430.129 305.112 429.702 305.032 429.243 305.032C428.667 305.032 428.193 305.165 427.819 305.432C427.446 305.699 427.259 306.088 427.259 306.6C427.259 306.92 427.323 307.192 427.451 307.416C427.579 307.629 427.814 307.827 428.155 308.008C428.507 308.189 429.014 308.381 429.675 308.584C430.369 308.797 430.945 309.027 431.403 309.272C431.862 309.517 432.23 309.859 432.507 310.296C432.795 310.723 432.939 311.267 432.939 311.928C432.939 312.568 432.779 313.133 432.459 313.624C432.15 314.115 431.697 314.499 431.099 314.776C430.513 315.053 429.814 315.192 429.003 315.192C427.478 315.192 426.23 314.717 425.259 313.768L426.091 312.84C426.539 313.203 426.993 313.48 427.451 313.672C427.91 313.853 428.422 313.944 428.987 313.944C429.67 313.944 430.235 313.779 430.683 313.448C431.131 313.107 431.355 312.616 431.355 311.976C431.355 311.613 431.286 311.315 431.147 311.08C431.009 310.835 430.769 310.616 430.427 310.424C430.097 310.232 429.611 310.04 428.971 309.848C427.841 309.507 427.014 309.096 426.491 308.616C425.969 308.136 425.707 307.485 425.707 306.664C425.707 306.109 425.851 305.613 426.139 305.176C426.438 304.739 426.849 304.397 427.371 304.152C427.905 303.907 428.507 303.784 429.179 303.784ZM439.066 306.376C439.834 306.376 440.431 306.605 440.858 307.064C441.295 307.523 441.514 308.152 441.514 308.952V315H440.042V309.16C440.042 308.563 439.925 308.141 439.69 307.896C439.466 307.651 439.135 307.528 438.698 307.528C438.261 307.528 437.871 307.656 437.53 307.912C437.189 308.168 436.869 308.531 436.57 309V315H435.098V303.192L436.57 303.032V307.736C437.231 306.829 438.063 306.376 439.066 306.376ZM447.641 306.376C448.825 306.376 449.742 306.771 450.393 307.56C451.054 308.349 451.385 309.421 451.385 310.776C451.385 311.651 451.236 312.424 450.937 313.096C450.638 313.757 450.206 314.275 449.641 314.648C449.076 315.011 448.404 315.192 447.625 315.192C446.441 315.192 445.518 314.797 444.857 314.008C444.196 313.219 443.865 312.147 443.865 310.792C443.865 309.917 444.014 309.149 444.313 308.488C444.612 307.816 445.044 307.299 445.609 306.936C446.174 306.563 446.852 306.376 447.641 306.376ZM447.641 307.56C446.18 307.56 445.449 308.637 445.449 310.792C445.449 312.936 446.174 314.008 447.625 314.008C449.076 314.008 449.801 312.931 449.801 310.776C449.801 308.632 449.081 307.56 447.641 307.56ZM457.481 306.376C457.78 306.376 458.057 306.408 458.313 306.472L458.041 307.912C457.785 307.848 457.54 307.816 457.305 307.816C456.782 307.816 456.361 308.008 456.041 308.392C455.721 308.776 455.47 309.373 455.289 310.184V315H453.817V306.568H455.081L455.225 308.28C455.449 307.651 455.753 307.176 456.137 306.856C456.521 306.536 456.969 306.376 457.481 306.376ZM465.872 310.536C465.872 310.781 465.862 311.032 465.84 311.288H460.464C460.528 312.216 460.763 312.899 461.168 313.336C461.574 313.773 462.096 313.992 462.736 313.992C463.142 313.992 463.515 313.933 463.856 313.816C464.198 313.699 464.555 313.512 464.928 313.256L465.568 314.136C464.672 314.84 463.691 315.192 462.624 315.192C461.451 315.192 460.534 314.808 459.872 314.04C459.222 313.272 458.896 312.216 458.896 310.872C458.896 309.997 459.035 309.224 459.312 308.552C459.6 307.869 460.006 307.336 460.528 306.952C461.062 306.568 461.686 306.376 462.4 306.376C463.52 306.376 464.379 306.744 464.976 307.48C465.574 308.216 465.872 309.235 465.872 310.536ZM464.416 310.104C464.416 309.272 464.251 308.637 463.92 308.2C463.59 307.763 463.094 307.544 462.432 307.544C461.227 307.544 460.571 308.429 460.464 310.2H464.416V310.104ZM474.41 302.184V316.568H474.058V302.184H474.41ZM493.237 315H491.765L491.381 310.024C491.221 308.072 491.131 306.573 491.109 305.528L488.725 313.752H487.301L484.789 305.512C484.789 306.845 484.72 308.387 484.581 310.136L484.213 315H482.773L483.685 303.976H485.733L488.053 311.992L490.261 303.976H492.325L493.237 315ZM501.434 313.032C501.434 313.373 501.493 313.629 501.61 313.8C501.728 313.96 501.904 314.083 502.138 314.168L501.802 315.192C501.365 315.139 501.013 315.016 500.746 314.824C500.48 314.632 500.282 314.333 500.154 313.928C499.589 314.771 498.752 315.192 497.642 315.192C496.81 315.192 496.154 314.957 495.674 314.488C495.194 314.019 494.954 313.405 494.954 312.648C494.954 311.752 495.274 311.064 495.914 310.584C496.565 310.104 497.482 309.864 498.666 309.864H499.962V309.24C499.962 308.643 499.818 308.216 499.53 307.96C499.242 307.704 498.8 307.576 498.202 307.576C497.584 307.576 496.826 307.725 495.93 308.024L495.562 306.952C496.608 306.568 497.578 306.376 498.474 306.376C499.466 306.376 500.208 306.621 500.698 307.112C501.189 307.592 501.434 308.28 501.434 309.176V313.032ZM497.978 314.088C498.821 314.088 499.482 313.651 499.962 312.776V310.84H498.858C497.301 310.84 496.522 311.416 496.522 312.568C496.522 313.069 496.645 313.448 496.89 313.704C497.136 313.96 497.498 314.088 497.978 314.088ZM505.981 315.192C505.437 315.192 505.005 315.032 504.685 314.712C504.376 314.381 504.221 313.923 504.221 313.336V303.176L505.693 303V313.304C505.693 313.539 505.731 313.709 505.805 313.816C505.891 313.923 506.029 313.976 506.221 313.976C506.424 313.976 506.605 313.944 506.765 313.88L507.149 314.904C506.797 315.096 506.408 315.192 505.981 315.192ZM510.461 306.568V315H508.989V306.568H510.461ZM509.709 302.52C510.018 302.52 510.269 302.616 510.461 302.808C510.653 303 510.749 303.24 510.749 303.528C510.749 303.816 510.653 304.056 510.461 304.248C510.269 304.429 510.018 304.52 509.709 304.52C509.41 304.52 509.165 304.429 508.973 304.248C508.781 304.056 508.685 303.816 508.685 303.528C508.685 303.24 508.781 303 508.973 302.808C509.165 302.616 509.41 302.52 509.709 302.52ZM517.36 306.376C518.32 306.376 519.083 306.765 519.648 307.544C520.214 308.312 520.496 309.389 520.496 310.776C520.496 311.651 520.363 312.424 520.096 313.096C519.83 313.757 519.446 314.275 518.944 314.648C518.443 315.011 517.856 315.192 517.184 315.192C516.299 315.192 515.552 314.819 514.944 314.072L514.8 315H513.504V303.176L514.976 303V307.624C515.584 306.792 516.379 306.376 517.36 306.376ZM516.832 314.024C517.483 314.024 517.99 313.763 518.352 313.24C518.726 312.707 518.912 311.885 518.912 310.776C518.912 309.635 518.742 308.813 518.4 308.312C518.059 307.8 517.574 307.544 516.944 307.544C516.198 307.544 515.542 307.981 514.976 308.856V312.888C515.2 313.24 515.472 313.517 515.792 313.72C516.123 313.923 516.47 314.024 516.832 314.024ZM529.276 315H528.012L527.9 313.688C527.58 314.211 527.212 314.595 526.796 314.84C526.38 315.075 525.874 315.192 525.276 315.192C524.54 315.192 523.964 314.968 523.548 314.52C523.132 314.072 522.924 313.437 522.924 312.616V306.568H524.396V312.456C524.396 313.032 524.498 313.443 524.7 313.688C524.903 313.923 525.234 314.04 525.692 314.04C526.514 314.04 527.218 313.555 527.804 312.584V306.568H529.276V315ZM532.701 312.968C533.021 312.968 533.288 313.075 533.501 313.288C533.714 313.501 533.821 313.763 533.821 314.072C533.821 314.403 533.725 314.781 533.533 315.208L532.461 317.656H531.405L532.045 315C531.906 314.893 531.794 314.76 531.709 314.6C531.634 314.44 531.597 314.264 531.597 314.072C531.597 313.763 531.704 313.501 531.917 313.288C532.13 313.075 532.392 312.968 532.701 312.968ZM544.331 303.784C544.992 303.784 545.547 303.869 545.995 304.04C546.454 304.211 546.918 304.488 547.387 304.872L546.555 305.848C545.883 305.304 545.174 305.032 544.427 305.032C543.51 305.032 542.768 305.384 542.203 306.088C541.648 306.792 541.371 307.923 541.371 309.48C541.371 310.995 541.648 312.115 542.203 312.84C542.758 313.555 543.494 313.912 544.411 313.912C544.88 313.912 545.291 313.832 545.643 313.672C545.995 313.512 546.368 313.288 546.763 313L547.515 313.96C547.174 314.312 546.736 314.605 546.203 314.84C545.67 315.075 545.056 315.192 544.363 315.192C543.467 315.192 542.667 314.973 541.963 314.536C541.27 314.088 540.726 313.437 540.331 312.584C539.947 311.72 539.755 310.685 539.755 309.48C539.755 308.275 539.958 307.245 540.363 306.392C540.768 305.528 541.318 304.877 542.011 304.44C542.704 304.003 543.478 303.784 544.331 303.784ZM555.3 315L554.468 312.232H550.292L549.46 315H547.924L551.46 303.976H553.38L556.9 315H555.3ZM550.66 311H554.1L552.388 305.24L550.66 311Z" fill="white"/>
<path d="M598.378 68.784C599.039 68.784 599.594 68.8693 600.042 69.04C600.501 69.2107 600.965 69.488 601.434 69.872L600.602 70.848C599.93 70.304 599.221 70.032 598.474 70.032C597.557 70.032 596.815 70.384 596.25 71.088C595.695 71.792 595.418 72.9227 595.418 74.48C595.418 75.9947 595.695 77.1147 596.25 77.84C596.805 78.5547 597.541 78.912 598.458 78.912C598.927 78.912 599.338 78.832 599.69 78.672C600.042 78.512 600.415 78.288 600.81 78L601.562 78.96C601.221 79.312 600.783 79.6053 600.25 79.84C599.717 80.0747 599.103 80.192 598.41 80.192C597.514 80.192 596.714 79.9733 596.01 79.536C595.317 79.088 594.773 78.4373 594.378 77.584C593.994 76.72 593.802 75.6853 593.802 74.48C593.802 73.2747 594.005 72.2453 594.41 71.392C594.815 70.528 595.365 69.8773 596.058 69.44C596.751 69.0027 597.525 68.784 598.378 68.784ZM609.401 80H608.137L608.025 78.688C607.705 79.2107 607.337 79.5947 606.921 79.84C606.505 80.0747 605.999 80.192 605.401 80.192C604.665 80.192 604.089 79.968 603.673 79.52C603.257 79.072 603.049 78.4373 603.049 77.616V71.568H604.521V77.456C604.521 78.032 604.623 78.4427 604.825 78.688C605.028 78.9227 605.359 79.04 605.817 79.04C606.639 79.04 607.343 78.5547 607.929 77.584V71.568H609.401V80ZM616.106 71.376C616.405 71.376 616.682 71.408 616.938 71.472L616.666 72.912C616.41 72.848 616.165 72.816 615.93 72.816C615.407 72.816 614.986 73.008 614.666 73.392C614.346 73.776 614.095 74.3733 613.914 75.184V80H612.442V71.568H613.706L613.85 73.28C614.074 72.6507 614.378 72.176 614.762 71.856C615.146 71.536 615.594 71.376 616.106 71.376ZM622.278 71.376C622.576 71.376 622.854 71.408 623.11 71.472L622.838 72.912C622.582 72.848 622.336 72.816 622.102 72.816C621.579 72.816 621.158 73.008 620.838 73.392C620.518 73.776 620.267 74.3733 620.086 75.184V80H618.614V71.568H619.878L620.022 73.28C620.246 72.6507 620.55 72.176 620.934 71.856C621.318 71.536 621.766 71.376 622.278 71.376ZM630.669 75.536C630.669 75.7813 630.659 76.032 630.637 76.288H625.261C625.325 77.216 625.56 77.8987 625.965 78.336C626.371 78.7733 626.893 78.992 627.533 78.992C627.939 78.992 628.312 78.9333 628.653 78.816C628.995 78.6987 629.352 78.512 629.725 78.256L630.365 79.136C629.469 79.84 628.488 80.192 627.421 80.192C626.248 80.192 625.331 79.808 624.669 79.04C624.019 78.272 623.693 77.216 623.693 75.872C623.693 74.9973 623.832 74.224 624.109 73.552C624.397 72.8693 624.803 72.336 625.325 71.952C625.859 71.568 626.483 71.376 627.197 71.376C628.317 71.376 629.176 71.744 629.773 72.48C630.371 73.216 630.669 74.2347 630.669 75.536ZM629.213 75.104C629.213 74.272 629.048 73.6373 628.717 73.2C628.387 72.7627 627.891 72.544 627.229 72.544C626.024 72.544 625.368 73.4293 625.261 75.2H629.213V75.104ZM636.988 71.376C637.756 71.376 638.353 71.6053 638.78 72.064C639.217 72.5227 639.436 73.152 639.436 73.952V80H637.964V74.16C637.964 73.5627 637.852 73.1413 637.628 72.896C637.404 72.6507 637.073 72.528 636.636 72.528C636.188 72.528 635.793 72.656 635.452 72.912C635.111 73.168 634.791 73.536 634.492 74.016V80H633.02V71.568H634.284L634.412 72.816C634.711 72.368 635.079 72.016 635.516 71.76C635.964 71.504 636.455 71.376 636.988 71.376ZM646.651 79.616C646.096 80 645.467 80.192 644.763 80.192C644.048 80.192 643.488 79.9893 643.083 79.584C642.688 79.168 642.491 78.5707 642.491 77.792V72.704H641.019V71.568H642.491V69.664L643.963 69.488V71.568H645.963L645.803 72.704H643.963V77.728C643.963 78.1653 644.038 78.4853 644.187 78.688C644.347 78.88 644.608 78.976 644.971 78.976C645.302 78.976 645.675 78.864 646.091 78.64L646.651 79.616ZM654.011 68.976V78.672H658.539L658.363 80H652.491V68.976H654.011ZM663.141 71.376C664.325 71.376 665.242 71.7707 665.893 72.56C666.554 73.3493 666.885 74.4213 666.885 75.776C666.885 76.6507 666.736 77.424 666.437 78.096C666.138 78.7573 665.706 79.2747 665.141 79.648C664.576 80.0107 663.904 80.192 663.125 80.192C661.941 80.192 661.018 79.7973 660.357 79.008C659.696 78.2187 659.365 77.1467 659.365 75.792C659.365 74.9173 659.514 74.1493 659.813 73.488C660.112 72.816 660.544 72.2987 661.109 71.936C661.674 71.5627 662.352 71.376 663.141 71.376ZM663.141 72.56C661.68 72.56 660.949 73.6373 660.949 75.792C660.949 77.936 661.674 79.008 663.125 79.008C664.576 79.008 665.301 77.9307 665.301 75.776C665.301 73.632 664.581 72.56 663.141 72.56ZM672.389 71.376C672.89 71.376 673.349 71.4507 673.765 71.6C674.181 71.7387 674.581 71.968 674.965 72.288L674.261 73.216C673.962 73.0027 673.669 72.848 673.381 72.752C673.104 72.6453 672.794 72.592 672.453 72.592C671.77 72.592 671.237 72.864 670.853 73.408C670.48 73.952 670.293 74.7573 670.293 75.824C670.293 76.8907 670.48 77.68 670.853 78.192C671.226 78.6933 671.76 78.944 672.453 78.944C672.784 78.944 673.088 78.896 673.365 78.8C673.642 78.6933 673.952 78.528 674.293 78.304L674.965 79.264C674.197 79.8827 673.338 80.192 672.389 80.192C671.248 80.192 670.346 79.808 669.685 79.04C669.034 78.272 668.709 77.2107 668.709 75.856C668.709 74.96 668.858 74.176 669.157 73.504C669.456 72.832 669.877 72.3093 670.421 71.936C670.976 71.5627 671.632 71.376 672.389 71.376ZM682.481 78.032C682.481 78.3733 682.54 78.6293 682.657 78.8C682.775 78.96 682.951 79.0827 683.185 79.168L682.849 80.192C682.412 80.1387 682.06 80.016 681.793 79.824C681.527 79.632 681.329 79.3333 681.201 78.928C680.636 79.7707 679.799 80.192 678.689 80.192C677.857 80.192 677.201 79.9573 676.721 79.488C676.241 79.0187 676.001 78.4053 676.001 77.648C676.001 76.752 676.321 76.064 676.961 75.584C677.612 75.104 678.529 74.864 679.713 74.864H681.009V74.24C681.009 73.6427 680.865 73.216 680.577 72.96C680.289 72.704 679.847 72.576 679.249 72.576C678.631 72.576 677.873 72.7253 676.977 73.024L676.609 71.952C677.655 71.568 678.625 71.376 679.521 71.376C680.513 71.376 681.255 71.6213 681.745 72.112C682.236 72.592 682.481 73.28 682.481 74.176V78.032ZM679.025 79.088C679.868 79.088 680.529 78.6507 681.009 77.776V75.84H679.905C678.348 75.84 677.569 76.416 677.569 77.568C677.569 78.0693 677.692 78.448 677.937 78.704C678.183 78.96 678.545 79.088 679.025 79.088ZM689.76 79.616C689.206 80 688.576 80.192 687.872 80.192C687.158 80.192 686.598 79.9893 686.192 79.584C685.798 79.168 685.6 78.5707 685.6 77.792V72.704H684.128V71.568H685.6V69.664L687.072 69.488V71.568H689.072L688.912 72.704H687.072V77.728C687.072 78.1653 687.147 78.4853 687.296 78.688C687.456 78.88 687.718 78.976 688.08 78.976C688.411 78.976 688.784 78.864 689.2 78.64L689.76 79.616ZM692.758 71.568V80H691.286V71.568H692.758ZM692.006 67.52C692.315 67.52 692.566 67.616 692.758 67.808C692.95 68 693.046 68.24 693.046 68.528C693.046 68.816 692.95 69.056 692.758 69.248C692.566 69.4293 692.315 69.52 692.006 69.52C691.707 69.52 691.462 69.4293 691.27 69.248C691.078 69.056 690.982 68.816 690.982 68.528C690.982 68.24 691.078 68 691.27 67.808C691.462 67.616 691.707 67.52 692.006 67.52ZM698.969 71.376C700.153 71.376 701.071 71.7707 701.721 72.56C702.383 73.3493 702.713 74.4213 702.713 75.776C702.713 76.6507 702.564 77.424 702.265 78.096C701.967 78.7573 701.535 79.2747 700.969 79.648C700.404 80.0107 699.732 80.192 698.953 80.192C697.769 80.192 696.847 79.7973 696.185 79.008C695.524 78.2187 695.193 77.1467 695.193 75.792C695.193 74.9173 695.343 74.1493 695.641 73.488C695.94 72.816 696.372 72.2987 696.937 71.936C697.503 71.5627 698.18 71.376 698.969 71.376ZM698.969 72.56C697.508 72.56 696.777 73.6373 696.777 75.792C696.777 77.936 697.503 79.008 698.953 79.008C700.404 79.008 701.129 77.9307 701.129 75.776C701.129 73.632 700.409 72.56 698.969 72.56ZM709.113 71.376C709.881 71.376 710.478 71.6053 710.905 72.064C711.342 72.5227 711.561 73.152 711.561 73.952V80H710.089V74.16C710.089 73.5627 709.977 73.1413 709.753 72.896C709.529 72.6507 709.198 72.528 708.761 72.528C708.313 72.528 707.918 72.656 707.577 72.912C707.236 73.168 706.916 73.536 706.617 74.016V80H705.145V71.568H706.409L706.537 72.816C706.836 72.368 707.204 72.016 707.641 71.76C708.089 71.504 708.58 71.376 709.113 71.376Z" fill="white"/>
</svg>
